<svg xmlns="http://www.w3.org/2000/svg" xmlns:xlink="http://www.w3.org/1999/xlink" width="150" height="45" viewBox="0 0 150 45">
  <defs>
    <polygon id="logo-infoq-a" points="6.318 4.923 6.318 .016 .02 .016 .02 4.923 6.318 4.923"/>
    <polygon id="logo-infoq-c" points="6.318 5.059 6.318 .153 .02 .153 .02 5.059 6.318 5.059"/>
    <polygon id="logo-infoq-e" points="0 44.068 149.254 44.068 149.254 0 0 0"/>
  </defs>
  <g fill="none" fill-rule="evenodd">
    <path fill="#A0A0A0" d="M149.116268,28.0191928 L147.984512,28.0191928 C148.831249,28.5990527 149.254084,29.3013131 149.254084,30.1274644 C149.254084,30.6517649 149.088321,31.0687787 148.757861,31.3776541 C148.427401,31.6871681 147.981312,31.8436281 147.419168,31.8436281 L143.094389,31.8436281 L143.094389,30.75373 L147.064601,30.75373 C147.516237,30.75373 147.836243,30.6866757 148.026327,30.5566117 C148.21705,30.4246319 148.311772,30.2064394 148.311772,29.9005442 C148.311772,29.2372391 147.874217,28.6109734 146.9974,28.0191928 L143.094389,28.0191928 L143.094389,26.9312106 L149.116268,26.9312106 L149.116268,28.0191928 L149.116268,28.0191928 Z"/>
    <g transform="translate(142.936 20.865)">
      <mask id="logo-infoq-b" fill="#fff">
        <use xlink:href="#logo-infoq-a"/>
      </mask>
      <path fill="#A0A0A0" d="M2.52047645,3.76016957 L2.52047645,1.11227077 C1.40088101,1.11227077 0.840443268,1.52800727 0.840443268,2.3607575 C0.840443268,3.19925524 1.40088101,3.66501636 2.52047645,3.76016957 L2.52047645,3.76016957 Z M5.9855049,0.0432340419 C6.20758929,0.77359346 6.31809814,1.39943336 6.31809814,1.9188379 C6.31809814,2.80459294 6.02305231,3.52558605 5.43338733,4.08394593 C4.84350901,4.64337016 4.08018726,4.92265654 3.14171539,4.92265654 C2.22884403,4.92265654 1.48002924,4.67679087 0.896337705,4.18420803 C0.311579488,3.69268956 0.0195203856,3.06174076 0.0195203856,2.29583193 C0.0195203856,1.56866558 0.278298831,1.00626115 0.795855721,0.609895882 C1.31298594,0.214382096 2.04964049,0.0155608492 3.00347266,0.0155608492 L3.34182601,0.0221598413 L3.34182601,3.81061993 C4.77182759,3.65181838 5.48629504,2.95360244 5.48629504,1.71448201 C5.48629504,1.26128027 5.36511931,0.704410478 5.12084782,0.0432340419 L5.9855049,0.0432340419 Z" mask="url(#logo-infoq-b)"/>
    </g>
    <path fill="#A0A0A0" d="M149.116268,15.8090564 L147.984512,15.8090564 C148.831249,16.3884905 149.254084,17.0918153 149.254084,17.917328 C149.254084,18.4407771 149.088321,18.8582165 148.757861,19.1675177 C148.427401,19.4770317 147.981312,19.6317887 147.419168,19.6317887 L143.094389,19.6317887 L143.094389,18.5433807 L147.064601,18.5433807 C147.516237,18.5433807 147.836243,18.4782423 148.026327,18.3462625 C148.21705,18.215347 148.311772,17.9960901 148.311772,17.6904078 C148.311772,17.0268898 147.874217,16.3993469 146.9974,15.8090564 L143.094389,15.8090564 L143.094389,14.7189455 L149.116268,14.7189455 L149.116268,15.8090564 Z"/>
    <g transform="translate(142.936 8.518)">
      <mask id="logo-infoq-d" fill="#fff">
        <use xlink:href="#logo-infoq-c"/>
      </mask>
      <path fill="#A0A0A0" d="M2.52047645,3.89798207 L2.52047645,1.2483803 C1.40088101,1.2483803 0.840443268,1.66432967 0.840443268,2.49707991 C0.840443268,3.33387468 1.40088101,3.8011259 2.52047645,3.89798207 L2.52047645,3.89798207 Z M5.9855049,0.179556447 C6.20758929,0.909702995 6.31809814,1.53426567 6.31809814,2.05494743 C6.31809814,2.94091534 6.02305231,3.66275993 5.43338733,4.22026833 C4.84350901,4.7794797 4.08018726,5.05897894 3.14171539,5.05897894 C2.22884403,5.05897894 1.48002924,4.8129004 0.896337705,4.32053044 C0.311579488,3.82879909 0.0195203856,3.19870178 0.0195203856,2.43045137 C0.0195203856,1.70498798 0.278298831,1.14428652 0.795855721,0.746005416 C1.31298594,0.35049163 2.04964049,0.152734737 3.00347266,0.152734737 L3.34182601,0.158482246 L3.34182601,3.94672947 C4.77182759,3.78814078 5.48629504,3.08992484 5.48629504,1.85080442 C5.48629504,1.3973898 5.36511931,0.840732883 5.12084782,0.179556447 L5.9855049,0.179556447 Z" mask="url(#logo-infoq-d)"/>
    </g>
    <mask id="logo-infoq-f" fill="#fff">
      <use xlink:href="#logo-infoq-e"/>
    </mask>
    <polygon fill="#2B6BAD" points="0 40.332 9.717 40.332 9.717 .9 0 .9" mask="url(#logo-infoq-f)"/>
    <path fill="#2B6BAD" d="M16.097406 40.3315923L16.097406 11.0169535 24.9848349 11.0169535 24.9848349 13.7440402C26.1285375 12.5985829 27.4190163 11.7443327 28.857338 11.1806511 30.2956598 10.6171823 31.9108383 10.3353415 33.7015937 10.3353415 36.9027236 10.3353415 39.2842107 11.3443486 40.8462682 13.3621501 42.408539 15.3801645 43.1902078 18.4708344 43.1902078 22.6337341L43.1902078 40.3315923 34.3017122 40.3315923 34.3017122 23.0699062C34.3017122 21.0887184 33.952052 19.6341728 33.2520915 18.706908 32.5519177 17.7798561 31.4451225 17.3162236 29.9308526 17.3162236 28.1484174 17.3162236 26.8782056 17.7485641 26.1202173 18.6111162 25.3632957 19.4753713 24.9848349 20.9614217 24.9848349 23.0699062L24.9848349 40.3315923 16.097406 40.3315923zM49.6912856 40.3315923L49.6912856 17.0980312 45.1755697 17.0980312 45.1755697 11.725813 49.6912856 11.725813C49.6338978 11.1259433 49.6006171 10.6897712 49.5908036 10.4170838 49.58099 10.1441836 49.5769366 9.8989565 49.5769366 9.68076402 49.5769366 6.57221299 50.3355649 4.33174873 51.8538883 2.95873262 53.3719983 1.586568 55.8586607.900059951 59.3128089.900059951 60.0714373.900059951 60.8447859.945614284 61.6320014 1.03629721 62.4202837 1.12761874 63.2407799 1.27279657 64.0949834 1.47268217L64.0949834 7.60825475 62.6086607 7.60825475C60.9698017 7.60825475 59.888607 7.80856609 59.3650766 8.20812442 58.8404796 8.60832136 58.5793545 9.40807663 58.5793545 10.6080288L58.5793545 11.725813 64.0949834 11.725813 64.0949834 17.0980312 58.5793545 17.0980312 58.5793545 40.3315923 49.6912856 40.3315923zM73.3828042 25.6880031C73.3828042 28.3605949 73.9972163 30.4833416 75.2266806 32.0553919 76.4552916 33.6282936 78.098204 34.4142122 80.1564847 34.4142122 82.2141253 34.4142122 83.8617312 33.6233975 85.100369 32.0417681 86.3385801 30.4601387 86.9574723 28.342288 86.9574723 25.6880031 86.9574723 23.0156241 86.3432735 20.88862 85.1150893 19.3067777 83.8854117 17.7251483 82.2326857 16.9345465 80.1564847 16.9345465 78.1169777 16.9345465 76.478972 17.7345146 75.2403342 19.3340251 74.0021231 20.9339614 73.3828042 23.052025 73.3828042 25.6880031M80.1564847 41.2861046C75.3930839 41.2861046 71.5587682 39.8592322 68.6528974 37.0046359 65.7478801 34.1508912 64.294838 30.3783964 64.294838 25.6880031 64.294838 21.0159166 65.7527868 17.2438476 68.6674044 14.3711573 71.5824486 11.4988928 75.4118576 10.0624412 80.1564847 10.0624412 84.9574328 10.0624412 88.8105223 11.4944225 91.716393 14.3573207 94.6214104 17.2210704 96.0753058 20.9973969 96.0753058 25.6880031 96.0753058 30.3603024 94.6122369 34.1279011 91.6878058 36.9910122 88.7631613 39.8547619 84.9192454 41.2861046 80.1564847 41.2861046" mask="url(#logo-infoq-f)"/>
    <path fill="#228D44" d="M119.643622,33.023315 C122.791844,33.023315 125.249066,31.9372486 127.013794,29.764903 C128.778096,27.5927702 129.660887,24.5610655 129.660887,20.6702146 C129.660887,16.7802152 128.774256,13.7397828 126.998861,11.5491303 C125.224532,9.35847776 122.773284,8.26283219 119.643622,8.26283219 C116.533801,8.26283219 114.086392,9.36720546 112.303104,11.5757391 C110.518962,13.7849114 109.627211,16.8164032 109.627211,20.6702146 C109.627211,24.5246646 110.514055,27.5472159 112.288383,29.7372298 C114.062712,31.9285209 116.514174,33.023315 119.643622,33.023315 M130.147083,38.8319182 C128.677827,39.6320992 127.056675,40.2409094 125.283413,40.6589875 C123.509725,41.0768527 121.631715,41.2861046 119.648529,41.2861046 C113.564355,41.2861046 108.696632,39.4139067 105.044934,35.6686593 C101.393235,31.9238378 99.5670654,26.924569 99.5670654,20.6702146 C99.5670654,17.2527882 100.12409,14.1936231 101.239845,11.4944225 C102.355387,8.79437037 104.01878,6.49025776 106.231304,4.58144607 C108.003712,3.05431157 110.010792,1.90906713 112.251049,1.14549988 C114.491307,0.381932634 116.955569,4.25741427e-05 119.643622,4.25741427e-05 C125.706675,4.25741427e-05 130.568851,1.88181968 134.229297,5.64494816 C137.890596,9.40807663 139.720605,14.4167117 139.720605,20.6702146 C139.720605,23.2883115 139.416173,25.6569239 138.806027,27.7739232 C138.196522,29.8924125 137.25357,31.8056945 135.976958,33.5144077 C137.120661,34.5142615 138.367832,35.3099722 139.720605,35.9000498 C141.073165,36.4916175 142.521941,36.8681858 144.064584,37.0320963 L141.092792,44.0676862 C138.844428,43.8492809 136.800654,43.2990101 134.962751,42.4179382 C133.123995,41.5355891 131.518417,40.3405329 130.147083,38.8319182" mask="url(#logo-infoq-f)"/>
    <path fill="#208642" d="M135.976851,33.5143226 C137.253463,31.8058222 138.196415,29.8923274 138.806134,27.773838 C139.098193,26.7614249 139.314731,25.6879179 139.46684,24.5611932 C135.987732,24.7363858 132.566864,24.904128 129.195064,25.0644196 C128.766682,26.9219294 128.044535,28.4946183 127.013688,29.7650307 C125.249173,31.9373763 122.791738,33.0232298 119.643515,33.0232298 C116.514067,33.0232298 114.062605,31.9286486 112.28849,29.7373575 C111.414659,28.6589545 110.758646,27.377047 110.315971,25.8954669 C106.889343,26.0317041 103.50389,26.155382 100.147664,26.2679906 C100.942346,29.9774757 102.560725,33.1207246 105.04504,35.6685742 C108.696526,39.4140344 113.564249,41.2862323 119.648635,41.2862323 C121.631821,41.2862323 123.509618,41.0767676 125.283307,40.6591152 C127.056568,40.2410371 128.67772,39.632014 130.147189,38.831833 C131.518523,40.3404478 133.123888,41.5357168 134.962645,42.417853 C136.800548,43.2991378 138.844321,43.8494086 141.092686,44.0676011 L144.064478,37.0320111 C142.522047,36.8683135 141.073272,36.4915324 139.720712,35.8999647 C138.367725,35.3100999 137.120554,34.5141763 135.976851,33.5143226" mask="url(#logo-infoq-f)"/>
    <path fill="#2265A9" d="M85.100433 32.0417043C83.8615819 33.6235465 82.2141893 34.4141484 80.1565487 34.4141484 78.098268 34.4141484 76.4553556 33.6282297 75.2267446 32.055328 74.1880041 30.726589 73.593219 28.9999946 73.4325759 26.8857627 70.402756 26.9202478 67.3744295 26.9415348 64.344823 26.9481338 64.5869611 31.0546228 66.014616 34.413084 68.6527481 37.0045721 71.5586188 39.8593812 75.3931479 41.2862536 80.1565487 41.2862536 84.9190961 41.2862536 88.7632253 39.8546981 91.6878698 36.9909484 94.4597645 34.2770596 95.9021397 30.7399999 96.0465692 26.3993531 92.9890155 26.4932291 89.9491688 26.5781645 86.9291625 26.6492634 86.7945465 28.8586485 86.1854678 30.6559159 85.100433 32.0417043M49.6912856 40.3315923L58.5793545 40.3315923 58.5793545 26.9426631C55.6269761 26.931168 52.6673443 26.9073265 49.6912856 26.8662425L49.6912856 40.3315923zM16.097406 40.3315923L24.9848349 40.3315923 24.9848349 26.1765414C22.0544303 26.0539278 19.0945852 25.9174777 16.097406 25.7629336L16.097406 40.3315923zM34.3018189 40.3315923L43.1901011 40.3315923 43.1901011 26.7502279C40.2483897 26.6882826 37.2893979 26.6135649 34.3018189 26.5199018L34.3018189 40.3315923zM0 40.3315923L9.71709861 40.3315923 9.71709861 25.4119098C6.52300885 25.2256479 3.29009166 25.0238464 0 24.7999065L0 40.3315923z" mask="url(#logo-infoq-f)"/>
  </g>
</svg>
