<?xml version="1.0" encoding="utf-8"?>
<svg version="1.1" xmlns="http://www.w3.org/2000/svg" width="351.871" height="132.422"
	 viewBox="0 0 351.871 132.422" overflow="visible" enable-background="new 0 0 351.871 132.422" xml:space="preserve">
<path fill="#C2DFFF" d="M0.512,45.86c0.29,1.48,0.29,2.531,0.29,3.542c0,1.525,0,1.844-0.287,3.399L0,54.785l7.698-0.82
	c0.002,0,6.617-0.36,6.617-0.36c2.353-0.161,4.646-0.241,6.863-0.241c0.035-0.001,3.345-0.061,5.287-0.096
	c0.214,7.827,0.332,15.776,0.332,23.67v20.865c0,5.3-0.122,10.583-0.362,15.705c-0.001,0.022-0.67,16.89-0.67,16.89l1.601-0.125
	c1.827-0.157,3.786-0.237,5.823-0.237c2.039,0,3.998,0.08,5.823,0.237l1.614,0.139l-0.805-16.903
	c-0.159-5.043-0.239-10.334-0.239-15.705V76.937c0-7.913,0.117-15.862,0.331-23.67c1.716,0.032,5.115,0.095,5.115,0.095
	c2.343,0.001,4.636,0.081,6.867,0.239c0.05,0.003,6.664,0.364,6.664,0.364c0.002,0,7.695,0.801,7.695,0.801l-0.379-1.918
	c-0.257-1.144-0.372-2.611-0.372-3.288c0-0.884,0.183-2.69,0.383-3.789l0.315-1.726c0,0-17.361,0.536-17.391,0.537
	c-0.013,0-15.621,0.124-15.621,0.124l-15.625-0.124c0.022,0-15.632-0.483-15.632-0.483l-1.875-0.058L0.512,45.86z"/>
<path fill="#C2DFFF" d="M158.815,69.87c-1.732,0.314-3.201,0.471-6.357,0.064l-1.638-0.496l-4.965,13.556
	c-0.008,0.022-4.612,12.865-4.612,12.865l-4.483,11.872c-0.003,0.009-1.237,3.218-2.266,5.894
	c-1.842-5.15-7.085-19.814-7.085-19.814c-2.646-7.538-5.001-15.255-7.001-22.933l-0.346-1.327l-1.338,0.302
	c-1.984,0.448-4.824,0.458-6.33,0.021l-1.332-0.386l-4.293,13.682l-4.363,13.085l-4.234,11.977c-0.779,2.109-1.488,3.962-2.136,5.6
	c-2.653-6.926-5.14-13.706-7.323-20.122c-2.487-7.624-4.808-15.317-6.892-22.851l-0.336-1.216l-1.458,0.226
	c-1.094,0.17-3.776,0.441-5.602,0.441c-1.82,0-3.775-0.265-5.02-0.471l-2.525-0.42l0.984,2.362
	c2.006,4.815,4.039,10.021,6.043,15.474c2.104,5.422,4.099,10.796,5.939,15.997c0.009,0.024,5.338,14.677,5.338,14.677l4.258,12.505
	l1.192-0.175c0.9-0.148,1.965-0.224,3.167-0.224c1.203,0,2.269,0.075,3.167,0.224l1.186,0.195l4.267-12.533
	c0.002-0.008,4.364-12.61,4.364-12.61l4.235-11.484c0.002-0.006,1.204-3.113,2.201-5.695c2.661,6.72,5.134,13.286,7.268,19.476
	c2.477,7.186,4.796,14.471,6.896,21.652l0.437,1.495l2.073-0.413c1.406-0.219,3.281-0.219,4.905-0.085l1.174,0.212l0.409-1.121
	c3.446-9.457,7.194-19.07,11.139-28.572c3.997-9.435,8.357-19.173,12.955-28.936l1.318-2.798L158.815,69.87z"/>
<path fill="#C2DFFF" d="M171.294,71.398c0.398,3.444,0.64,7.194,0.718,11.147c0.162,3.945,0.244,7.763,0.244,11.376v12.615
	c0,3.589-0.082,7.447-0.243,11.467c-0.079,3.907-0.32,7.491-0.718,10.681l-0.217,1.738l1.745-0.15
	c1.825-0.157,3.62-0.237,5.338-0.237c1.715,0,3.51,0.08,5.336,0.237l1.745,0.15l-0.218-1.738c-0.395-3.158-0.677-6.753-0.84-10.683
	l-0.118-11.465V93.921l0.12-11.376c0.162-3.984,0.444-7.744,0.84-11.146l0.221-1.902l-1.883,0.344
	c-3.229,0.59-7.865,0.597-10.338,0.015l-1.964-0.462L171.294,71.398z"/>
<path fill="#C2DFFF" d="M221.754,71.716c-2.233,1.319-4.252,3.069-6.069,5.16c0.059-1.851,0.069-3.705,0.207-5.536l0.137-1.808
	l-1.786,0.303c-3.409,0.577-6.353,0.577-9.845-0.001l-1.858-0.308l0.219,1.87c0.397,3.404,0.64,7.154,0.718,11.146
	c0.162,4.015,0.244,7.832,0.244,11.376v12.615c0,3.564-0.082,7.423-0.242,11.467c-0.08,3.935-0.322,7.519-0.719,10.68l-0.218,1.739
	l1.746-0.15c1.827-0.157,3.622-0.237,5.339-0.237c1.714,0,3.51,0.08,5.336,0.237l1.745,0.15l-0.218-1.738
	c-0.396-3.178-0.68-6.771-0.84-10.683l-0.12-11.465V96.224c0-5.969,1.212-10.624,3.603-13.835c2.395-3.121,6.115-4.645,11.359-4.645
	c3.682,0,6.484,1.361,8.568,4.162c2.153,2.819,3.239,7.144,3.239,12.865v7.397c0,4.614-0.122,9.201-0.362,13.634
	c-0.001,0.025-0.547,14.625-0.547,14.625l1.617-0.158c1.578-0.156,3.205-0.235,4.832-0.235c1.713,0,3.381,0.079,4.959,0.235
	l1.671,0.166l-0.362-5.19l0.003-3.787v-7.886c0-4.085,0.082-7.981,0.245-11.582c0.16-3.728,0.241-7.382,0.241-10.862
	c0-4.39-0.654-8.056-1.944-10.898c-1.2-2.913-2.848-5.263-4.878-6.937c-1.981-1.727-4.29-2.97-6.834-3.67
	c-2.375-0.678-4.791-1.023-7.169-1.023C229.166,68.6,225.123,69.649,221.754,71.716z"/>
<path fill="#C2DFFF" d="M286.678,70.491c-3.882,1.182-7.396,3.11-10.444,5.736c-2.967,2.539-5.415,5.842-7.271,9.813
	c-1.861,3.973-2.806,8.747-2.806,14.19c0,5.672,0.899,10.561,2.671,14.529c1.867,3.99,4.314,7.293,7.284,9.838
	c2.988,2.475,6.339,4.278,9.976,5.378c3.693,1.008,7.37,1.514,10.965,1.514c4.045,0,7.973-0.725,11.673-2.155
	c3.746-1.415,6.937-3.162,9.474-5.188l0.557-0.444l-0.024-0.713c-0.074-2.112-0.036-3.67,0.37-5.856l0.207-1.104l-2.153-0.947
	l-0.685,0.791c-0.992,1.146-2.328,2.17-3.625,3.104c-1.32,1.011-2.754,1.901-4.291,2.671c-1.507,0.678-3.116,1.267-4.73,1.726
	c-1.521,0.361-3.084,0.553-4.588,0.553c-6.496,0-11.262-1.9-14.564-5.808c-3.318-3.997-5.004-10.06-5.004-18.011
	c0-3.593,0.354-6.955,1.055-9.995c0.76-3.031,1.916-5.692,3.427-7.885c1.536-2.122,3.526-3.812,5.897-4.996
	c2.469-1.27,5.434-1.909,8.83-1.909c1.758,0,3.375,0.291,4.809,0.865c1.53,0.537,2.873,1.245,4.048,2.124
	c1.329,0.865,2.411,1.797,3.292,2.822c0.912,0.989,1.576,1.78,2.37,3.001l0.393,0.604l2.106,0.115l0.261-1.173
	c0.464-2.088,1.519-4.661,3.136-7.648l0.533-0.985l-0.836-0.746c-1.714-1.533-4.392-2.822-8.186-3.942
	c-3.576-1.161-7.725-1.755-12.291-1.755C294.5,68.602,290.519,69.239,286.678,70.491z"/>
<path fill="#C2DFFF" d="M331.333,40.116
	c0,0,5.057,0.854,7.156,0.785c1.992-0.065,6.643-1.146,6.643-1.146c-1.65,24.373-0.512,48.086-0.734,72.121
	c-0.072,7.906,2.49,12.621,7.473,14.138c-2.449,4.394-6.658,6.933-11.209,6.317c-4.473-0.604-8.342-5.331-8.449-14.754
	C331.919,91.757,333.378,65.937,331.333,40.116L331.333,40.116z"/>
<polygon fill="#FCC700" points="178.703,67.485 179.458,49.106 182.019,33.591 193.916,42.928 184.428,30.58 193.916,28.474 
	212.294,27.568 193.916,26.512 184.881,24.1 193.767,12.503 182.321,21.692 179.458,12.503 178.703,0 178.406,0 177.651,12.503 
	174.79,21.692 163.342,12.503 172.229,24.1 163.188,26.512 144.812,27.568 163.188,28.474 172.678,30.58 163.188,42.928 
	175.089,33.591 177.651,49.106 178.406,67.485 "/>
</svg>
