<?xml version="1.0" encoding="utf-8"?>
<!-- Generator: Adobe Illustrator 19.2.1, SVG Export Plug-In . SVG Version: 6.00 Build 0)  -->
<svg version="1.1" id="Layer_1" xmlns="http://www.w3.org/2000/svg" xmlns:xlink="http://www.w3.org/1999/xlink" x="0px" y="0px"
	 viewBox="0 0 40 40" style="enable-background:new 0 0 40 40;" xml:space="preserve">
<style type="text/css">
	.Drop_x0020_Shadow{fill:none;}
	.Round_x0020_Corners_x0020_2_x0020_pt{fill:#FFFFFF;stroke:#000000;stroke-miterlimit:10;}
	.Live_x0020_Reflect_x0020_X{fill:none;}
	.Bevel_x0020_Soft{fill:url(#SVGID_1_);}
	.Dusk{fill:#FFFFFF;}
	.Foliage_GS{fill:#FFDD00;}
	.Pompadour_GS{fill-rule:evenodd;clip-rule:evenodd;fill:#44ADE2;}
	.st0{fill:#FFFFFF;}
</style>
<linearGradient id="SVGID_1_" gradientUnits="userSpaceOnUse" x1="12" y1="12" x2="12.7071" y2="12.7071">
	<stop  offset="0" style="stop-color:#DEDFE3"/>
	<stop  offset="0.1738" style="stop-color:#D8D9DD"/>
	<stop  offset="0.352" style="stop-color:#C9CACD"/>
	<stop  offset="0.5323" style="stop-color:#B4B5B8"/>
	<stop  offset="0.7139" style="stop-color:#989A9C"/>
	<stop  offset="0.8949" style="stop-color:#797C7E"/>
	<stop  offset="1" style="stop-color:#656B6C"/>
</linearGradient>
<path class="st0" d="M2.7,23.8h1.6v14.8c0,0.8,0.6,1.4,1.4,1.4h28.6c0.8,0,1.4-0.6,1.4-1.4V23.8h1.6c0.8,0,1.4-0.6,1.4-1.4V12
	c0-0.8-0.6-1.5-1.4-1.5h-7c3.3-1.7,5-3.3,5.2-5.2c0.1-1.1-0.2-2.7-2.6-4.2c-2.6-1.5-4.7-1.2-6-0.7c-2.2,0.9-4.1,3.1-5.7,6.5
	c-0.2,0.5-0.4,1-0.6,1.5C20.2,8,20,7.5,19.8,7c-1.6-3.4-3.5-5.6-5.7-6.5c-1.3-0.5-3.5-0.9-6,0.7C5.5,2.6,5.2,4.2,5.4,5.4
	c0.2,1.8,1.9,3.4,5.2,5.2H2.7c-0.8,0-1.4,0.6-1.4,1.5v10.3C1.3,23.2,1.9,23.8,2.7,23.8L2.7,23.8z M7.3,23.8h11.2V37H7.3V23.8z
	 M32.7,37H21.5V23.8h11.2V37z M35.7,20.8H21.5v-7.2h14.2V20.8z M23.8,8.2c1.2-2.7,2.7-4.4,4.2-5C28.3,3.1,28.7,3,29.1,3
	c0.7,0,1.4,0.2,2.2,0.7c0.8,0.5,1.2,1,1.2,1.3c-0.2,1.3-4.5,3.7-9.6,5.3C23.2,9.7,23.4,9,23.8,8.2L23.8,8.2z M8.3,4.9
	C8.3,4.6,8.7,4.1,9.5,3.7C10.3,3.2,11,3,11.7,3c0.4,0,0.8,0.1,1.1,0.2c2.3,0.9,4.1,4.5,5,7.1C12.9,8.7,8.5,6.3,8.3,4.9L8.3,4.9z
	 M4.3,13.5h14.2v7.2H4.3V13.5z M4.3,13.5"/>
</svg>
