<?xml version="1.0" encoding="utf-8"?>
<!-- Generator: Adobe Illustrator 20.1.0, SVG Export Plug-In . SVG Version: 6.00 Build 0)  -->
<svg version="1.1" id="Layer_1" xmlns="http://www.w3.org/2000/svg" xmlns:xlink="http://www.w3.org/1999/xlink" x="0px" y="0px"
	 viewBox="0 0 104.2 28.9" style="enable-background:new 0 0 104.2 28.9;" xml:space="preserve">
<style type="text/css">
	.st0{fill:#7E0EA8;}
	.st1{fill:#635D65;}
</style>
<g>
	<path class="st0" d="M15.5,13.1c0,8.7-9,7.4-12,7.4v0c-1,0-2.1-0.2-2.5-0.7c-0.1-0.1-0.2-0.3-0.2-0.6V9.6c0-0.4,0-0.9,0.9-1
		c1.1-0.1,3.4-0.2,4.1,0.6C5.9,9.4,6,9.6,6,9.9v8.6c2.1,0.1,4.7-0.6,4.7-5.7c0-6.1-4.5-5.3-6.4-5.1C2.8,7.9,1.4,8.2,0.6,8.3
		C0.5,8.4,0.4,8.3,0.4,8.2c0-0.1-0.2-1-0.2-1.3c0-0.2,0.1-0.2,0.2-0.2c3.6-1.1,6.3-1.5,8.2-1.5C11.9,5.2,15.5,7,15.5,13.1z"/>
	<path class="st0" d="M21.8,15.7c0-0.1,0.1-0.1,0.1-0.1c1.5-0.3,2.9-0.9,2.9-1.6c0-0.7-0.5-1.2-1.3-1.1s-2,0.6-2,2.8
		c0,1.5,0.3,2.6,2.3,2.6c1.8,0,4.4-0.9,5.8-1.8c0,0,0.1,0,0.1,0c0.1,0,0.1,0.1,0.1,0.1v1.1c0,0,0,0.1-0.1,0.1
		c-1.9,1.5-4.7,2.6-7.2,2.8c-2.4,0.1-5.2-0.7-6.1-3.4c-0.4-1.1-0.5-3.1,0.7-4.7c1.4-1.9,3.8-2.8,6-2.8c4.1,0,4.9,2.1,5,2.9
		c0.4,3.2-3.4,4.2-6.2,4.3c-0.1,0-0.1-0.1-0.1-0.1C21.8,16.4,21.8,15.9,21.8,15.7z"/>
	<path class="st0" d="M45.2,17.6C45.2,17.6,45.2,17.6,45.2,17.6c-1.6,1.9-3.5,2.8-5.4,2.8c-2,0-2.7-1.4-2.9-2.5
		c-0.7,0.9-1.4,2.5-3.7,2.5c-2.4,0-3.8-1.8-3.8-5c0-3.4,2.5-5.9,8.2-5.9c1.2,0,2.4,0.2,3.9,0.4c0.2,0,0.4,0.2,0.4,0.4v5.9
		c0,1,0.4,1.4,0.9,1.4c0.6,0,1.6-0.7,2.2-1.2c0,0,0.1,0,0.1,0c0.1,0,0.1,0.1,0.1,0.1V17.6z M36.8,11.2c-1.8,0-3,1-3,3.4
		s1.2,2.5,1.6,2.5c0.4,0,0.9-0.2,1.4-0.7V11.2z"/>
	<path class="st0" d="M53.5,17.6C53.5,17.6,53.5,17.6,53.5,17.6c-1.5,1.9-3.4,2.8-5.3,2.8c-2.5,0-3.1-2.2-3.1-3.9V4.7
		c0-0.4,0-1,0.9-1c1,0,3.4,0.5,4.1,1.2c0.1,0.2,0.2,0.4,0.2,0.6v10.6c0,1,0.4,1.4,0.9,1.4c0.7,0,1.6-0.7,2.2-1.2c0,0,0,0,0.1,0
		c0.1,0,0.1,0.1,0.1,0.1V17.6z"/>
	<path class="st1" d="M66,12.6c0,1.1-0.4,2-1.1,2.6c-0.7,0.6-1.8,0.9-3.2,0.9h-1.1v4.1h-1.8V9.3h3.1c1.4,0,2.4,0.3,3.1,0.8
		C65.7,10.7,66,11.5,66,12.6z M60.6,14.6h0.9c0.9,0,1.6-0.2,2-0.5c0.4-0.3,0.6-0.8,0.6-1.5c0-0.6-0.2-1.1-0.6-1.4
		c-0.4-0.3-1-0.5-1.8-0.5h-1.2V14.6z"/>
	<path class="st1" d="M77.8,14.8c0,1.8-0.4,3.2-1.3,4.1s-2.1,1.5-3.8,1.5c-1.6,0-2.9-0.5-3.8-1.5c-0.9-1-1.3-2.4-1.3-4.2
		s0.4-3.2,1.3-4.1c0.9-1,2.2-1.4,3.8-1.4c1.6,0,2.9,0.5,3.8,1.5C77.4,11.6,77.8,13,77.8,14.8z M69.5,14.8c0,1.3,0.3,2.4,0.8,3.1
		c0.5,0.7,1.3,1,2.4,1c1.1,0,1.9-0.3,2.4-1c0.5-0.7,0.8-1.7,0.8-3.1c0-1.3-0.3-2.4-0.8-3c-0.5-0.7-1.3-1-2.4-1c-1.1,0-1.9,0.3-2.4,1
		C69.8,12.4,69.5,13.4,69.5,14.8z"/>
	<path class="st1" d="M86.5,17.3c0,1-0.4,1.7-1.1,2.3c-0.7,0.6-1.7,0.8-2.9,0.8s-2.2-0.2-3-0.6v-1.7c0.5,0.2,1,0.4,1.6,0.6
		c0.6,0.1,1.1,0.2,1.6,0.2c0.7,0,1.2-0.1,1.6-0.4c0.3-0.3,0.5-0.6,0.5-1.1c0-0.4-0.2-0.8-0.5-1c-0.3-0.3-0.9-0.6-1.9-1
		c-1-0.4-1.7-0.9-2.1-1.4c-0.4-0.5-0.6-1.1-0.6-1.9c0-0.9,0.3-1.6,1-2.1c0.6-0.5,1.5-0.8,2.6-0.8c1,0,2.1,0.2,3.1,0.7l-0.6,1.5
		c-1-0.4-1.8-0.6-2.6-0.6c-0.6,0-1,0.1-1.3,0.4c-0.3,0.3-0.4,0.6-0.4,1c0,0.3,0.1,0.5,0.2,0.7c0.1,0.2,0.3,0.4,0.6,0.6
		s0.8,0.4,1.5,0.7c0.8,0.3,1.4,0.6,1.8,0.9c0.4,0.3,0.6,0.6,0.8,1S86.5,16.8,86.5,17.3z"/>
	<path class="st1" d="M92.3,20.2h-1.8v-9.4h-3.2V9.3h8.2v1.5h-3.2V20.2z"/>
	<path class="st1" d="M103.5,17.3c0,1-0.4,1.7-1.1,2.3c-0.7,0.6-1.7,0.8-2.9,0.8s-2.2-0.2-3-0.6v-1.7c0.5,0.2,1,0.4,1.6,0.6
		c0.6,0.1,1.1,0.2,1.6,0.2c0.7,0,1.2-0.1,1.6-0.4c0.3-0.3,0.5-0.6,0.5-1.1c0-0.4-0.2-0.8-0.5-1c-0.3-0.3-0.9-0.6-1.9-1
		c-1-0.4-1.7-0.9-2.1-1.4c-0.4-0.5-0.6-1.1-0.6-1.9c0-0.9,0.3-1.6,1-2.1c0.6-0.5,1.5-0.8,2.6-0.8c1,0,2.1,0.2,3.1,0.7l-0.6,1.5
		c-1-0.4-1.8-0.6-2.6-0.6c-0.6,0-1,0.1-1.3,0.4c-0.3,0.3-0.4,0.6-0.4,1c0,0.3,0.1,0.5,0.2,0.7s0.3,0.4,0.6,0.6s0.8,0.4,1.5,0.7
		c0.8,0.3,1.4,0.6,1.8,0.9c0.4,0.3,0.6,0.6,0.8,1C103.4,16.3,103.5,16.8,103.5,17.3z"/>
</g>
</svg>
