<?xml version="1.0" encoding="utf-8"?>
<!-- Generator: Adobe Illustrator 19.0.1, SVG Export Plug-In . SVG Version: 6.00 Build 0)  -->
<svg version="1.1" id="Layer_1" xmlns="http://www.w3.org/2000/svg" xmlns:xlink="http://www.w3.org/1999/xlink" x="0px" y="0px"
	 viewBox="-333 301 612 200" style="enable-background:new -333 301 612 200;" xml:space="preserve">
<style type="text/css">
	.st0{fill:#4285F4;}
	.st1{fill:#EA4335;}
	.st2{fill:#FBBC05;}
	.st3{fill:#34A853;}
	.st4{fill:none;}
</style>
<path class="st0" d="M-253.9,392.7v-21h70.3c0.7,3.7,1.1,8.1,1.1,12.9c0,15.7-4.3,35.2-18.2,49.1c-13.5,14.1-30.7,21.6-53.6,21.6
	c-42.4,0-78-34.5-78-76.9s35.6-76.9,78-76.9c23.4,0,40.1,9.2,52.7,21.2l-14.8,14.8c-9-8.4-21.2-15-37.9-15
	c-30.9,0-55.1,24.9-55.1,55.9s24.2,55.9,55.1,55.9c20.1,0,31.5-8.1,38.8-15.4c6-6,9.9-14.5,11.4-26.2H-253.9z"/>
<path class="st1" d="M-75.4,405.8c0,28.5-22.3,49.5-49.7,49.5s-49.7-21-49.7-49.5c0-28.7,22.3-49.5,49.7-49.5
	S-75.4,377.1-75.4,405.8z M-97.1,405.8c0-17.8-12.9-30-27.9-30s-27.9,12.2-27.9,30c0,17.6,12.9,30,27.9,30
	C-110.1,435.8-97.1,423.4-97.1,405.8z"/>
<path class="st2" d="M33,405.8c0,28.5-22.3,49.5-49.7,49.5s-49.7-21-49.7-49.5c0-28.7,22.3-49.5,49.7-49.5S33,377.1,33,405.8z
	 M11.2,405.8c0-17.8-12.9-30-27.9-30s-27.9,12.2-27.9,30c0,17.6,12.9,30,27.9,30S11.2,423.4,11.2,405.8z"/>
<path class="st0" d="M136.8,359.3v88.8c0,36.6-21.6,51.5-47,51.5c-24,0-38.4-16.1-43.9-29.2l18.9-7.9c3.4,8.1,11.6,17.6,24.9,17.6
	c16.3,0,26.4-10.1,26.4-29.1v-7.1h-0.7c-4.9,6-14.2,11.2-26.1,11.2c-24.7,0-47.4-21.6-47.4-49.3c0-27.9,22.7-49.7,47.4-49.7
	c11.8,0,21.2,5.2,26.1,11.1h0.7v-8.1h20.7V359.3z M117.7,406c0-17.4-11.6-30.2-26.4-30.2c-15,0-27.6,12.7-27.6,30.2
	c0,17.2,12.6,29.8,27.6,29.8C106.1,435.8,117.7,423.2,117.7,406z"/>
<path class="st3" d="M173.7,307.3v145H152v-145H173.7z"/>
<path class="st1" d="M257.6,422.1l16.9,11.2c-5.4,8.1-18.6,21.9-41.2,21.9c-28.1,0-49.1-21.7-49.1-49.5c0-29.4,21.2-49.5,46.7-49.5
	c25.7,0,38.2,20.4,42.4,31.5l2.2,5.6l-66.2,27.4c5.1,9.9,12.9,15,24,15C244.3,435.8,252,430.3,257.6,422.1z M205.7,404.3l44.2-18.4
	c-2.4-6.2-9.7-10.5-18.4-10.5C220.5,375.4,205.2,385.2,205.7,404.3z"/>
<rect x="-333" y="301.4" class="st4" width="612.1" height="199.2"/>
</svg>
