<?xml version="1.0" encoding="utf-8"?>
<!-- Generator: Adobe Illustrator 21.0.2, SVG Export Plug-In . SVG Version: 6.00 Build 0)  -->
<svg version="1.1" id="Layer_1" xmlns="http://www.w3.org/2000/svg" xmlns:xlink="http://www.w3.org/1999/xlink" x="0px" y="0px"
	 viewBox="0 0 118 38" style="enable-background:new 0 0 118 38;" xml:space="preserve">
<style type="text/css">
	.st0{fill:#FFF9F4;}
</style>
<g>
	<path class="st0" d="M22.2,8.2c-0.2,1.7-0.5,3.5-1.2,5c0.6,0.4,1.3,0.7,1.6,1.4c0.1,0.4,0.2,1-0.1,1.4c-0.1,0.1-0.2,0.2-0.4,0.1
		L21.9,16c-0.5-0.6-0.9-1.2-1.4-1.8c-1,1.5-2.4,2.4-3.8,3.1L16.5,17c1.3-0.9,2.5-2.1,3.3-3.5c-0.7-0.5-1.5-1-2.3-1.4
		c0.1-0.6,0.3-1,0.4-1.6l0.5-2.2l0.1-0.5l-1.1,0c-0.4,0-0.5,0-1,0.1l-0.3-0.5h2.4c0.2-1,0.3-2.1,0.4-3.2c0.5,0.1,1,0.3,1.4,0.5
		c0.1,0,0.1,0.1,0.1,0.2c0,0.2-0.4,0.1-0.5,0.4l-0.3,2.1H21l0.5-0.7c0.1,0,0.2,0,0.3,0c0.4,0.3,0.6,0.6,1,0.9
		C22.9,8,22.3,8,22.2,8.2z M19.6,7.9c-0.3,1.5-0.6,2.9-0.9,4.2c0.5,0.2,0.9,0.4,1.4,0.6c0.6-1.5,0.8-3.2,1-4.8H19.6z M28,7.7L28,7.7
		v3.4l0,2.8l0,1.9c0,0.2-0.7,0.5-1.1,0.6c-0.1,0-0.1-0.1-0.2-0.1v-2h-2.2c0,0.6,0,1.1,0,1.9c0,0.3-0.2,0.3-0.3,0.4l-0.8,0.3
		c-0.1,0-0.2,0-0.2-0.1l0-1.9l0-6.7l-0.1-1.7c0.5,0.2,0.8,0.4,1.3,0.6h2l0.5-0.6c0.1-0.1,0.2-0.2,0.3,0c0.2,0.2,0.5,0.5,0.9,0.8
		C28.5,7.3,28.1,7.5,28,7.7z M26.8,7.3h-2.2l0,6.4h2.2V7.3z"/>
	<path class="st0" d="M34.1,5.3c-0.4,0.9-0.8,1.7-1.2,2.5C33.1,8,33.4,8,33.6,8.2c0,0.1,0.1,0.1,0,0.2c-0.1,0.1-0.3,0.2-0.4,0.4v6.2
		l0,1.5c0,0.1-0.1,0.2-0.2,0.2c-0.2,0.2-0.5,0.2-0.8,0.4c-0.1,0-0.2-0.1-0.3-0.2c0-0.7,0-1.3,0-2.1l0-5.3V9.3
		c-0.5,0.8-1,1.6-1.6,2.3c-0.1,0-0.1-0.1-0.2-0.1C31.5,9.1,32.4,6.6,33,4c0.5,0.1,1.1,0.4,1.6,0.6c0.1,0,0.1,0.1,0,0.2
		C34.5,5,34.2,5,34.1,5.3z M43.2,6.3h-1.8V8v7.7c0,0.6-1,1.3-1.6,1.5c-0.2-0.5-0.5-1.1-1-1.3c-0.4-0.2-0.7-0.3-1.2-0.4l0-0.3
		c0.7,0.1,1.5,0.2,2.3,0.2c0.1,0,0.2,0,0.3-0.1l0-0.1V6.3h-4.8c-0.3,0.1-0.7,0.1-1,0.2c-0.1-0.2-0.2-0.4-0.3-0.6h7.1l0.7-0.9
		c0.1-0.1,0.2-0.1,0.3,0c0.5,0.5,0.7,0.6,1.1,1.1C43.4,6.2,43.3,6.3,43.2,6.3z M38.6,9l0,0.2v2.6l0,0.9c0,0.2-0.3,0.3-0.5,0.4
		c-0.3,0.2-0.6,0.3-0.6,0.1v-0.6h-1.6v0.7c0,0.2-0.6,0.4-1,0.5c-0.1,0-0.1-0.1-0.1-0.1c0-0.9,0.1-2,0-2.9l0-2.4l0-0.5h0.1
		C35.2,8,35.6,8.1,36,8.3h1.4l0.5-0.6c0.1-0.1,0.2,0,0.2,0c0.4,0.2,0.7,0.5,1,0.7C39.2,8.7,38.8,8.8,38.6,9z M37.5,8.8h-1.6v3.3
		l1.6,0V8.8z"/>
	<path class="st0" d="M48.6,12.8c0,0.2,0,0.3-0.1,0.3c-0.2,0.2-0.5,0.2-0.7,0.3c-0.1,0-0.2-0.1-0.2-0.1l0-1.1h-1.1v1.1
		c0,0.1,0,0.3-0.1,0.3c-0.2,0.1-0.5,0.2-0.7,0.2c-0.1,0-0.2-0.1-0.2-0.2l0-2.5V7.5c0-0.3,0-0.6-0.1-1.8c0.4,0.2,0.9,0.4,1.3,0.5h0.7
		L48,5.8c0.1-0.1,0.2-0.1,0.3,0l0.8,0.6c0.1,0,0.1,0.1,0,0.2c-0.1,0.2-0.5,0.4-0.5,0.5v1.4V12.8z M47.6,6.7h-1.1v5.1h1.1V6.7z
		 M56.3,11.6c0-0.1,0.2-0.1,0.3,0c0.4,0.4,0.5,0.6,0.9,0.9c0,0.1,0,0.2-0.1,0.2h-3.8c0.5,1.6,2.3,2.6,3.9,3.1l0,0.3
		c-0.4,0-0.9,0-1.2,0.3c-0.2,0.1-0.3,0.3-0.4,0.5c-1.4-0.9-2.4-2.4-2.7-4c-0.4,1-0.8,2-1.8,2.7c-1.1,0.8-2.4,1.2-3.7,1.5l-0.2-0.2
		c1.4-0.5,2.7-1.1,3.7-2.3c0.4-0.5,0.6-1.1,0.7-1.7H50c-0.2,0-0.6,0.1-0.9,0.1c-0.1-0.2-0.2-0.4-0.3-0.5h1V8.7l-0.9,0.6
		c-0.1,0-0.1-0.1-0.2-0.2c1.4-1.5,2.4-3.3,3-5.2h0.1L53,4.7c0.1,0.1,0.1,0.2,0,0.3c-0.1,0.1-0.3,0.1-0.4,0.2
		c-0.2,0.2-0.3,0.5-0.5,0.8h1.5l0.6-0.6c0,0,0.2,0,0.3,0l1.1,0.8c0,0.1,0.1,0.2,0.1,0.2l-0.1,0.1c-0.3,0.1-0.5,0.1-0.7,0.2
		c-0.4,0.5-0.9,1-1.4,1.4l1.3,0L55,7.4c0.1,0,0.2-0.1,0.3,0l1.1,0.7c0,0.1,0,0.1,0,0.2l-0.5,0.5v3.5h0.1L56.3,11.6z M51.9,6.3
		c-0.4,0.5-0.7,1-1.2,1.4L51.2,8h1.5c0.3-0.6,0.6-1.1,0.8-1.7H51.9z M50.8,8.4l0,3c0.8-0.8,1.3-1.9,1.5-3L50.8,8.4z M53,8.4l0.7,0.4
		c0.1,0.1,0.1,0.1,0.1,0.2c-0.1,0.1-0.3,0.2-0.5,0.2c-0.2,0.1-0.3,0.4-0.4,0.5c0.6,0.2,1.4,0.3,1.6,1.1c0,0.3-0.1,0.6-0.3,0.7
		c-0.1,0-0.2,0-0.2-0.1c-0.3-0.5-0.7-1-1.2-1.4h-0.1c-0.4,0.6-1,1.1-1.6,1.5c-0.1,0-0.2-0.1-0.3-0.1v0.8H52c0.1-0.4,0.1-0.7,0.2-1.1
		c0.5,0.2,0.9,0.4,1.4,0.6c0.2,0.3-0.3,0.4-0.3,0.5h1.4l0-3.8H53z"/>
	<path class="st0" d="M60,15.2c0.6,0.2,1.1,0.3,1.7,0.4c0.1,0,0.3,0,0.3-0.1c0.2-0.4,0.2-0.7,0.4-1.3c0.1-0.4,0.2-0.7,0.2-1.2h-1.6
		c-0.2,0.2-0.3,0.6-0.5,0.5c-0.4-0.2-0.6-0.3-1-0.6c-0.1,0-0.1-0.2,0-0.2c0.2-0.2,0.5-0.3,0.6-0.5c0.2-0.7,0.3-1.4,0.4-2.1
		c0.4,0.2,0.7,0.3,1.2,0.6h1.1V8.9h-1.2c-0.9,0.7-1.9,1.1-3,1.5l-0.2-0.2c2-1,3.8-2.5,4.8-4.5l-2.9,0c-0.3,0-0.5,0-1,0.1l-0.3-0.6
		h4.2l0.6-0.5c0,0,0.2-0.1,0.3,0c0.4,0.3,0.6,0.5,1,0.7c0,0,0,0.1,0,0.2c-0.2,0.1-0.3,0.1-0.5,0.3c-0.6,0.9-1.5,1.9-2.4,2.6l0.6,0
		L63.2,8c0,0,0.2-0.1,0.3,0c0.4,0.3,0.5,0.4,0.8,0.6c0.1,0.1,0.1,0.2,0,0.2C64.2,9,64,9,64,9.2v1.1c0,0.3,0,0.5,0,0.9
		c0,0.1-0.1,0.2-0.2,0.2l-0.9,0.2c-0.1,0-0.1-0.1-0.1-0.2V11h-1.4l-0.3,1.5h1.5L63,12c0-0.1,0.1-0.1,0.2,0l0.7,0.5
		c0.2,0.1,0.1,0.2,0.1,0.3c-0.2,0.2-0.3,0.2-0.4,0.5c-0.1,1-0.3,1.9-0.6,2.8c-0.4,0.6-1,0.7-1.6,0.9c-0.1-0.3-0.2-0.5-0.4-0.8
		c-0.4-0.3-0.6-0.4-1.2-0.7L60,15.2z M60,5.9c0.6,0.2,1.3,0.6,1.6,1.1c0.1,0.2,0.1,0.5,0,0.7c-0.1,0.3-0.3,0.5-0.5,0.5
		c-0.1,0-0.3-0.1-0.3-0.2c-0.2-0.8-0.3-1.5-0.9-1.9L60,5.9z M64.3,13.2c0.8,0.2,1.5,0.5,2.3,0.7c0.4-0.4,0.6-0.8,1-1.3h-0.1h-2.1
		c-0.3,0-0.5,0.1-0.8,0.1l-0.3-0.5c-0.1,0-0.2,0.1-0.3,0.1l-0.2-0.2c0.6-0.6,1.1-1.2,1.2-2C65,9.4,65,8.6,64.9,8
		c0.4,0.2,0.9,0.4,1.3,0.6H67l0.3-0.3c-1.2-1.1-1.9-2.5-2.3-4c0.1-0.1,0.2-0.1,0.3-0.1c0.3,0.7,0.6,1.4,1,2h0.1
		c0.7-0.5,1.4-1.2,1.8-1.9c0.4,0.3,0.7,0.6,1,0.9c0,0.1,0,0.2-0.1,0.2c-0.6,0.1-1,0.3-1.6,0.7c-0.3,0.2-0.6,0.3-0.9,0.4
		c0.2,0.3,0.5,0.6,0.8,0.8C67.8,7.2,68,7,68.2,6.8c0.5-0.3,0.9-0.8,1.4-1.2l0.1,0c0.3,0.3,0.5,0.5,0.9,0.8c0.1,0.2-0.3,0.2-0.5,0.2
		c-0.8,0.3-1.5,0.6-2.2,0.8c0.6,0.5,1.2,0.7,1.9,1c0.6,0.3,1.4,0.4,2,0.5l0,0.2c-0.5,0-1,0.2-1.2,0.6L70.4,10
		c-0.7-0.2-1.3-0.6-1.9-0.9c-0.1,0.1-0.2,0.1-0.3,0.2v1.2c0,0.2,0.3,0.2,0.7,0.2c0.3,0,0.5-0.2,0.8-0.3c0.1-0.1,0.3,0.1,0.5,0.4
		c0.2,0.2,0.6,0.6,0.3,0.7c-0.7,0.3-1.5,0.2-2.3,0.2c0.4,0.3,0.8,0.5,1.2,0.7c0,0.1,0,0.1,0,0.2c-0.2,0.1-0.3,0.2-0.5,0.3
		c-0.4,0.5-0.8,1-1.3,1.4c0.8,0.4,1.6,0.7,2,1.4c0.2,0.3,0.1,0.7-0.1,1c-0.1,0.1-0.2,0.2-0.3,0.2l-0.2,0c-0.7-0.6-1.4-1.3-2.2-1.9
		l-0.1,0c-1,0.8-2.1,1.4-3.3,1.8L63,17l-0.1-0.2c1.2-0.6,2.3-1.4,3.3-2.3c-0.6-0.4-1.2-0.7-1.9-1L64.3,13.2z M68.1,11.7l-0.2,0
		c-0.3-0.1-0.7-0.3-0.8-0.6c0-0.7,0-1.4,0-2.1h-1c0,0.4,0,0.7-0.1,1.1c-0.1,1.1-1,1.7-1.8,2.1l3.5,0L68.1,11.7z"/>
	<path class="st0" d="M85.3,6.4h-4.1v0.6c0,0.1,0,0.2-0.1,0.3c-0.2,0.1-0.4,0.2-0.8,0.4c-0.1,0-0.2,0-0.2-0.1V6.4H78v0.8
		c0,0.1,0,0.2-0.1,0.3c-0.2,0.1-0.4,0.2-0.7,0.4c-0.1,0.1-0.3,0-0.3-0.1l0-0.8V6.4l-2.8,0c-0.3,0-0.7,0.1-1.1,0.2l-0.3-0.6h4.2
		c0-0.6,0-1.2,0-1.9l1.4,0.4c0,0,0.1,0.1,0.1,0.2C78.4,4.8,78,5,78,5.1v0.8h2.1c0-0.8,0-1.3-0.1-1.8c0.6,0.1,1,0.2,1.4,0.4
		c0.1,0,0.1,0.1,0.1,0.2c-0.2,0.2-0.4,0.3-0.4,0.4v0.8h2.3L84,5.2c0.1-0.1,0.2-0.1,0.3,0c0.5,0.4,0.6,0.6,1.1,0.9
		C85.4,6.2,85.4,6.4,85.3,6.4z M74,16.1c-0.1,0.1-0.3,0.3-0.5,0.4c-0.2,0.1-0.4,0.1-0.5,0.1c-0.3-0.2-0.2-0.4-0.2-0.5
		c0.1-0.2,0.3-0.4,0.4-0.5c0.3-0.5,0.6-1,0.7-1.6l0.3,0C74.3,14.6,74.4,15.4,74,16.1z M77.2,9.7c-0.9,0.9-1.9,2-2.9,2.7
		c0.7,0,1.4-0.1,2.1-0.1l0-0.1c-0.1-0.3-0.3-0.5-0.5-0.8l0.2-0.1c0.7,0.4,1.2,0.5,1.5,1.2c0.1,0.3,0,0.6-0.2,0.8
		c-0.1,0.1-0.3,0.1-0.4,0.1c-0.2-0.1-0.2-0.3-0.3-0.6l-0.1-0.2l-2,0.6L74,13.4c-0.1,0.3-0.3,0.2-0.4,0.1c-0.2-0.3-0.3-0.5-0.5-0.8
		c0-0.2,0.2-0.2,0.5-0.3c0.7-0.5,1.3-1.1,1.8-1.8c-0.6,0.1-1,0.2-1.5,0.5c-0.1,0.1-0.2,0.2-0.4,0.1c-0.2-0.3-0.3-0.5-0.4-0.8
		C73,10,73.3,10,73.5,9.9c0.3-0.1,0.5-0.4,0.6-0.6C74.6,8.6,75,7.8,75.3,7l1.3,0.8c0.1,0,0,0.2-0.1,0.2c-0.5,0.2-0.6,0.2-0.7,0.3
		c-0.4,0.6-1,1.3-1.6,1.8c0.6,0,1.1-0.1,1.6-0.1c0.3-0.5,0.6-1,0.9-1.5c0.4,0.2,0.7,0.5,1.1,0.8c0,0,0.1,0.1,0,0.2
		C77.5,9.6,77.3,9.6,77.2,9.7z M75.2,16.1c-0.1,0-0.2-0.1-0.3-0.3c0.1-0.7,0.3-1.4,0.1-2.1l0.2-0.1c0.3,0.6,0.9,1.4,0.6,2.1
		C75.7,16,75.5,16.1,75.2,16.1z M77.1,15.5c-0.1,0.1-0.3,0.2-0.4,0.1c-0.3-0.2-0.2-0.6-0.2-0.8c-0.1-0.6-0.2-0.8-0.3-1.2l0.2-0.1
		c0.4,0.4,0.9,0.8,1.1,1.3C77.4,15.1,77.3,15.3,77.1,15.5z M85.6,16.3h-8c-0.3,0-0.5,0.1-0.9,0.1l-0.4-0.6h1.5v-2.3
		c0-0.4,0-0.8-0.1-1.7c0.4,0.2,0.7,0.3,1.1,0.5h4l0.5-0.5c0.1-0.1,0.2-0.1,0.3,0c0.2,0.2,0.3,0.3,0.7,0.6c0.2,0.2-0.1,0.3-0.4,0.6
		l0,2.8h0.2l0.5-0.7c0-0.1,0.2-0.1,0.2,0c0.3,0.3,0.6,0.7,0.8,0.9C85.7,16.2,85.7,16.3,85.6,16.3z M83.6,8.5c0,0.5,0,0.9,0,1.4
		l0.1,1.3c0,0.2,0,0.2-0.2,0.3c-0.2,0.1-0.5,0.3-0.7,0.4c-0.1,0.1-0.3,0-0.3-0.1v-0.3h-3.3v0.1c0,0.1,0,0.2-0.2,0.3
		c-0.2,0.1-0.4,0.2-0.7,0.3c-0.1,0-0.2-0.1-0.2-0.2c0-0.4,0-0.7,0-1.5V8.9c0-0.7,0-1,0-1.6c0.5,0.2,0.8,0.4,1.2,0.6h3.1l0.4-0.6
		c0,0,0.1,0,0.2,0c0.3,0.2,0.4,0.3,0.8,0.6C84,8,84,8.1,84,8.1C83.8,8.3,83.6,8.4,83.6,8.5z M79.6,12.9h-0.8v3h0.8V12.9z M82.6,8.3
		h-3.3v2.7h3.3V8.3z M82.1,10.6c-0.1,0.1-0.2,0.1-0.3,0.1c-0.2-0.3-0.5-0.8-1-0.9c-0.4,0.5-0.8,0.8-1.4,1.1l-0.1-0.1
		c0.6-0.6,1.1-1.4,1.2-2.3c0.4,0.1,0.8,0.2,1,0.3c0.1,0.1,0.1,0.1,0,0.2c-0.2,0.1-0.4,0.2-0.4,0.3l-0.1,0.2c0.5,0,1,0.1,1.2,0.6
		C82.4,10.2,82.2,10.5,82.1,10.6z M81.3,12.9h-0.8v3h0.8V12.9z M82.9,12.9h-0.8v3h0.8V12.9z"/>
	<path class="st0" d="M89,11.8c0,1.1-0.1,2.3-0.9,3.1c-0.3,0.4-0.7,0.7-1.1,1c-0.1,0-0.2-0.1-0.2-0.1c0.1-0.2,0.3-0.4,0.4-0.6
		c0.7-0.9,0.8-2.1,0.8-3.3c-0.3,0-0.5,0.1-0.8,0.1l-0.3-0.6h2.7l0-0.1v-1l-0.7,0l-0.4,0.4c-0.1,0-0.2,0-0.2,0
		c-0.4-0.3-0.6-0.4-0.7-0.6C87.6,9.9,88,9.8,88,9.6c0-0.9,0-1.6-0.1-2.5c0.4,0.1,0.8,0.2,1.2,0.4c0.2,0.2-0.3,0.3-0.3,0.4v1.8h0.7
		c0-0.8,0-1.5-0.1-2.3C90,7.7,90.4,8,90.9,8.2h3.7c0-0.4,0-0.6-0.1-0.9c-0.3,0.1-0.5,0.2-0.5,0V6.4h-2l0,0.9c0,0.2-0.5,0.3-0.8,0.4
		c-0.1,0-0.2-0.1-0.2-0.2V6.3l-3,0c-0.3,0-0.4,0-0.7,0.1L87,6l4.1,0c0-0.7,0-1.3,0-1.9c0.5,0.1,0.9,0.3,1.4,0.4
		c0.1,0,0.1,0.1,0.1,0.2C92.3,4.8,92,5,92,5.1v0.9l2,0c0-0.8,0-1.2,0-1.8c0.6,0.2,0.8,0.3,1.3,0.5c0.1,0,0.1,0.2,0,0.2
		C95.2,5,95,5.1,95,5.1l0,0.8l2.3,0l0.7-0.8c0.1,0,0.2,0,0.3,0c0.4,0.4,0.5,0.5,1,1c0.1,0.1,0,0.2-0.1,0.2H95l0,0.5
		c0,0.1,0,0.2-0.1,0.2l-0.2,0.1c0.4,0.1,0.8,0.2,1.2,0.3c0.1,0,0.1,0.1,0,0.2c-0.1,0.1-0.3,0.2-0.4,0.4l0,0.1h2l0.5-0.7
		c0.1-0.1,0.2-0.1,0.3,0c0.4,0.3,0.6,0.5,1,0.9c0.1,0.1,0,0.2-0.1,0.2h-3.7c0.1,1.4,0.2,2.7,0.6,4c0.5-1.1,0.6-2.3,0.7-3.4
		c0.5,0.2,0.9,0.4,1.4,0.7c0,0,0.1,0.2,0,0.2c-0.1,0.1-0.3,0.2-0.3,0.3c-0.3,1.2-0.7,2.3-1.3,3.4c0.3,0.5,0.8,1,1.3,1.4
		c0.1,0,0.2,0.1,0.3,0c0.1-0.1,0.2-0.4,0.3-0.8c0.1-0.5,0.3-0.8,0.4-1.4l0.3,0.1c-0.1,1.2-0.3,2.7,0.4,3.7c0,0.1,0,0.2,0,0.2
		c-0.3,0.1-0.5,0-0.8-0.1c-1.1-0.5-2-1.3-2.7-2.2c-0.4,0.3-0.8,0.7-1.2,1c-0.9,0.5-1.7,1-2.7,1.3c-0.1-0.1-0.2-0.2-0.3-0.3
		c0.9-0.5,1.8-1,2.6-1.7l-2.5,0l-0.3,0.4c-0.1,0.1-0.1,0.1-0.2,0.1c-0.3-0.2-0.4-0.4-0.7-0.6c-0.1-0.2,0.3-0.4,0.3-0.5l0-0.5l0-3.2
		l0-1.4l0.1,0L92,9.4h1.4l0.4-0.5c0-0.1,0.2-0.1,0.2,0c0.2,0.2,0.4,0.4,0.6,0.6l0-1h-3.9v0.1c0,1.5,0,2.9-0.2,4.3
		c-0.1,1.1-0.7,2.2-1.7,2.8c-0.6,0.4-1.1,0.7-1.7,1.1c-0.1,0-0.2-0.1-0.2-0.1c1-0.8,2.1-1.7,2.4-2.9c0.2-0.7,0.3-1.4,0.3-2.2H89z
		 M93.8,11.4h-1.8v1.2h1.8V11.4z M92.5,9.8H92v1.1h0.6V9.8z M92.5,12.9H92v1.6h0.6V12.9z M94,10.6c0.1-0.1,0.2,0,0.3,0
		c0.3,0.2,0.4,0.3,0.6,0.5c-0.1-0.4-0.1-0.8-0.2-1.2h-1.4v1.1h0.3L94,10.6z M94.7,13c0,0.1-0.1,0.1-0.1,0.2
		c-0.2,0.1-0.4,0.2-0.6,0.2c-0.1,0-0.2,0-0.2-0.1v-0.4h-0.4v1.6h0.3L94,14c0.1,0,0.1,0,0.2,0l0.7,0.7h0.1c0.3-0.3,0.5-0.5,0.7-0.8
		c-0.4-0.8-0.6-1.6-0.7-2.5c-0.2,0.1-0.3,0.2-0.3,0.2v0.7L94.7,13z M95.8,6.6c0.5,0,1.3,0.1,1.6,0.3c0.2,0.2,0.3,0.4,0.2,0.6
		c-0.1,0.2-0.2,0.4-0.5,0.5c-0.3,0-0.4-0.3-0.6-0.6c-0.2-0.3-0.5-0.5-0.8-0.6L95.8,6.6z"/>
	<path class="st0" d="M11.1,23.4v4v0.2v4.8c-0.2,0.7-1,1-1.6,1.2c-0.1-0.4-0.2-0.9-0.7-1.3L8,32l0.1-0.3l1.4,0.2
		c0.3,0,0.5,0,0.5-0.4v-0.4v-2.6H8.3c-0.1,2-0.7,3.8-2.1,5.3L6,33.6c0.6-1.1,0.9-2.3,1.1-3.7c0.1-1.1,0.1-1.9,0.1-2.9v-3l0-0.8
		c0-0.4,0-0.8-0.1-1.3c0.5,0.2,0.9,0.4,1.3,0.6h1.4l0.5-0.7c0-0.1,0.2-0.1,0.2,0l1,0.8c0,0.1,0,0.2,0,0.2
		C11.4,23.1,11.1,23.1,11.1,23.4z M10,25.8H8.3c0,0.8,0,1.6,0,2.3l1.7,0V25.8z M10,22.9H8.3v2.4l1.7,0V22.9z M18.1,33.3
		c-0.6,0.1-1.4,0.2-2.1,0c-0.3-0.1-0.4-0.2-0.6-0.6l0-0.3l0-2.8v-6.6l-1.5,0v3.6c0,1.6,0.1,4-0.9,5.2c-0.7,0.8-1.4,1.5-2.2,1.9
		c-0.1,0-0.2-0.1-0.2-0.2c1-0.9,1.8-1.9,2-3.2c0.1-0.7,0.2-1.4,0.2-2.2v-3.6c0-0.9-0.1-1.8-0.1-2.7c0.5,0.2,1,0.4,1.4,0.6l1.2,0
		l0.5-0.7c0.1-0.1,0.2-0.1,0.3,0l1,0.8c0.2,0.3-0.3,0.4-0.4,0.5l-0.1,0.1l0,8.5c0,0.2,0.1,0.2,0.2,0.3c0.2,0,0.5,0.1,0.7-0.1
		c0.2-0.2,0.3-0.5,0.3-0.8c0.1-0.7,0.1-1.3,0.2-2h0.3c0.1,1.1-0.2,2.3,0.8,2.9C18.8,32.8,18.5,33.2,18.1,33.3z"/>
	<path class="st0" d="M23.8,31.7c0-0.9,0-1.6,0-2.5l-0.2,0.1c-0.1,0-0.2,0-0.2-0.1c0.1-1.2,0-2.3,0-3.4c0.4,0.1,0.8,0.4,1.3,0.6h5.5
		l0.3-0.3L28,26c-0.7,0-1.3,0-2-0.2c-0.2-0.1-0.4-0.2-0.5-0.4c0-0.1,0-0.3,0-0.4L24.2,25c-0.3,0-0.5,0.1-0.8,0.1l-0.4-0.5
		c0.9,0,1.7-0.1,2.5-0.2c0-0.3,0-0.7,0-1h-2.7l0,1.3v3.7c0,2.1-1.1,3.8-2.5,5.2c-0.1,0-0.2-0.1-0.2-0.2c1.2-1.8,1.7-3.9,1.7-6.1V24
		l-0.1-1.4c0.5,0.2,0.8,0.4,1.2,0.6h2.8l0-1.4c0-0.3,0-0.6,0-0.9c0.5,0.1,1,0.3,1.5,0.5c0.2,0.2-0.4,0.5-0.4,0.6v0.4h2.7l0.6-0.8
		c0,0,0.2,0,0.3,0c0.4,0.4,0.6,0.6,0.9,0.9c0,0.1,0,0.2-0.1,0.2h-4.4v0.6H31l0.4-0.5c0,0,0.2-0.1,0.3,0c0.4,0.3,0.6,0.5,1.1,0.9
		c0.1,0.3-0.4,0.2-0.7,0.3c-0.2,0-0.4,0.1-0.6,0.2l0.1,0.1c0,0.4,0,0.8,0.3,1.1l0.2,0.2c-0.2,0.5-0.7,0.6-1.2,0.6
		c0.3,0.2,0.5,0.3,0.8,0.5c0.1,0.1,0.1,0.2,0,0.2c-0.1,0.1-0.3,0.3-0.3,0.4c0,0.5,0,1.1,0,1.6c0,0.1-0.1,0.2-0.2,0.3
		c-0.2,0.1-0.4,0.2-0.5,0.2l0.4,0.3c0.1,0.1,0.1,0.2,0,0.3c-0.1,0.1-0.2,0.3-0.3,0.4v2.5c0,0.4-0.2,0.7-0.5,0.9
		c-0.3,0.1-0.6,0.3-0.9,0.3c-0.2-0.8-1-1.1-1.7-1.2l0-0.2c0.7,0.1,1.1,0.1,1.7,0.2c0.1,0,0.2-0.1,0.3-0.2c0-0.2,0-0.5,0-0.6h-4.9
		c0,0.5,0,1,0,1.5c0,0.1-0.1,0.2-0.2,0.3c-0.1,0.1-0.5,0.3-0.7,0.3c-0.1,0-0.2,0-0.2-0.1V31.7z M30.3,28.7h-5.8
		c0,0.2-0.1,0.2-0.2,0.3l0.7,0.4l4.6,0l0.5-0.5c0.1-0.1,0.2,0,0.3,0V28.7z M26.9,26.7h-2.4v0.6h2.4V26.7z M26.9,27.7h-2.4v0.7h2.4
		V27.7z M29.8,29.8h-4.9v0.6h4.9V29.8z M29.8,30.8h-4.9v0.7h4.9V30.8z M28.9,23.7c0,0,0.2-0.1,0.3,0c0.3,0.3,0.6,0.5,0.9,0.7
		c0.1,0.1,0,0.2,0,0.2l-3.5,0.2c0,0.3,0,0.3,0.3,0.3c1.3,0.1,2.6,0.1,3.9,0c0.4-0.2,0.4-0.7,0.5-1c-0.3,0.1-0.5,0.3-0.9,0.5
		l-0.2-0.2c0.3-0.4,0.5-0.7,0.7-0.9H26l0.8,0.3c0.3,0.2-0.3,0.5-0.3,0.6c0.6,0,1.2,0,1.8-0.1L28.9,23.7z M30.3,26.7h-2.3v0.6h2.3
		V26.7z M30.3,27.7h-2.3v0.7h2.3V27.7z"/>
	<path class="st0" d="M38.2,24.7c-0.1,0.5-0.4,1.2-0.5,1.6l-1,3.4c-0.1,0.9,0,1.7,0.1,2.6c0.1,0.4,0.2,0.8-0.1,1.1
		c-0.2,0.2-0.6,0.2-0.8,0.1c-0.3-0.1-0.4-0.2-0.4-0.6c0-0.7,0.2-1.3,0.1-2.1c-0.1-0.5-0.3-0.9-0.7-1.1l-0.7-0.3l0-0.3
		c0.5,0,1,0.2,1.4-0.1c0.3-0.2,0.6-0.8,0.8-1.2l1-2l0.5-1.3L38.2,24.7z M34.6,24.4c0.5,0.2,1.1,0.6,1.5,0.8c0.3,0.2,0.5,0.5,0.5,0.9
		c0,0.4-0.3,0.8-0.6,1c-0.1,0-0.3,0-0.4-0.1l-0.1-0.2c-0.2-0.8-0.5-1.7-1.1-2.3L34.6,24.4z M35.6,21c0.8,0.3,1.8,0.6,2.1,1.3
		c0.2,0.5-0.1,0.9-0.4,1.3c-0.1,0.1-0.2,0.1-0.3,0.1c-0.1,0-0.2-0.1-0.3-0.3c-0.3-0.8-0.6-1.6-1.2-2.2L35.6,21z M41.7,29.3
		c-0.9,1.5-2.7,3-4.3,4l-0.2-0.2c1.5-1.4,2.9-3,3.8-4.8h-2c-0.2,0-0.5,0-0.8,0.1l-0.3-0.5h3.8c0-0.6,0-1.3,0-1.9
		c0.5,0.1,1,0.3,1.5,0.5c0,0,0.1,0.1,0,0.2c-0.1,0.1-0.3,0.2-0.4,0.4v0.9h2l0.6-0.8c0.1,0,0.1,0,0.2,0c0.4,0.3,0.7,0.6,1.1,0.9
		c0,0.1,0.1,0.1,0,0.2l-0.1,0h-3c0.5,1.7,1.9,3.2,3.6,3.9l-0.1,0.2c-0.6,0-1.3,0.1-1.7,0.6c-1.3-1.3-2.1-2.9-2.3-4.7h-0.4l0,0.6
		l0,2.9l0,1.4c0,0.2-0.1,0.3-0.2,0.3c-0.3,0.1-0.5,0.3-0.8,0.3c-0.1,0-0.1-0.1-0.2-0.1l0.1-3L41.7,29.3z M44.8,23.9
		c0.2-0.5,0.3-0.9,0.4-1.4l0-0.1h-5.1c-0.1,0.8-0.1,1.8-0.8,2.2c-0.2,0.2-0.6,0.2-0.8,0c-0.2-0.1-0.3-0.3-0.2-0.5l0-0.2
		c0.7-0.8,1.3-1.6,1.5-2.7l0.2,0L40,22l5.1,0l0.5-0.6c0.1,0,0.2,0,0.3,0c0.4,0.4,0.8,0.7,1.2,1.1c0.1,0.2,0,0.2-0.1,0.2
		c-0.3,0.1-0.6,0.1-0.9,0.2c-0.4,0.3-0.8,0.6-1.1,1L44.8,23.9z M42.4,24.2c-0.2,0.1-0.5,0-0.6,0.2c-1,1.1-2.1,2.2-3.3,2.8
		c-0.1,0-0.2-0.2-0.2-0.2c1.2-1.1,2.2-2.4,2.8-3.9c0.5,0.2,0.9,0.5,1.4,0.8C42.4,24.1,42.4,24.1,42.4,24.2z M44.1,25.3
		c0.1,0.3,0.3,0.2,0.5,0.2c0.5,0,0.8-0.1,1.3-0.4c0.2-0.1,0.3,0.1,0.4,0.3c0.1,0.2,0.4,0.6,0.3,0.7c-0.5,0.3-1.2,0.3-1.8,0.3
		c-0.6,0-1.2,0-1.6-0.3C43.1,26,43,25.9,43,25.6c0-1.3,0-1.7,0-2.5c0.6,0.1,1,0.3,1.5,0.4c0.1,0.1,0.1,0.2,0,0.3
		c-0.1,0.1-0.4,0.1-0.4,0.4L44.1,25.3z"/>
	<path class="st0" d="M54.8,26.2c0,0.1,0.1,0.2,0.2,0.2c1,0.1,2.1,0,3.1,0c0.2,0,0.3-0.1,0.5-0.3c0.2-0.3,0.2-0.7,0.3-1.1l0.2,0
		c0,0.6-0.1,0.9,0.3,1.2c0.1,0.1,0.3,0.2,0.3,0.4c-0.1,0.4-0.5,0.4-1,0.5l-0.6,0.1h-2.5c-0.6,0-1.4-0.1-1.7-0.7
		c-0.1-0.3-0.1-0.5-0.1-0.9c-0.4,0-0.9,0.1-1.3,0.2c-0.3,0.1-0.6,0.2-0.9,0.3l-0.5-0.6c0.9-0.1,1.8-0.2,2.7-0.3c0-0.5,0-1,0-1.4
		h-2.9l0,2.6c0,1.6-0.1,3.4-0.8,4.8c-0.4,0.8-1,1.7-1.6,2.4c-0.1,0-0.2-0.1-0.3-0.1c0.9-1.6,1.5-3.5,1.5-5.4c0-0.6,0-1.3,0-1.9
		l0-2.4l-0.1-1.1c0.4,0.2,0.9,0.4,1.3,0.6h2.8c0-0.8,0-1.6,0-2.5c0.5,0.1,1.5,0.3,1.5,0.4c0.2,0.3-0.4,0.4-0.4,0.6v0.3h2.7l0.5-0.8
		c0-0.1,0.2-0.1,0.3,0c0.4,0.3,0.7,0.6,1,1c0.1,0.1,0,0.2-0.1,0.2h-0.4h-4.1v0.8h0.1h4.1l0.4-0.5c0.1-0.1,0.2-0.1,0.3,0
		c0.5,0.3,0.8,0.5,1.2,0.9c0,0.1,0,0.1,0,0.2l-0.1,0c-0.4,0-0.6,0-0.9,0.2c-0.5,0.3-1,0.6-1.5,1c-0.1,0-0.1-0.1-0.2-0.1
		c0.3-0.4,0.6-0.8,0.8-1.3h-5.1c0.5,0.1,0.9,0.2,1.3,0.4c0.1,0.1,0.1,0.1,0.1,0.2c-0.1,0.1-0.3,0.2-0.3,0.3v0.4
		c0.4,0,0.7-0.1,1.1-0.1l0.5-0.8c0-0.1,0.2-0.1,0.3-0.1c0.4,0.3,0.8,0.5,1.2,0.9c0,0.1,0,0.1-0.1,0.2l-2.9,0.3V26.2z M54.1,27.9
		c0-0.1,0.2-0.1,0.2,0c0.2,0.1,0.8,0.5,1,0.6c0.1,0,0.1,0.1,0,0.2c-0.2,0.2-0.4,0.2-0.5,0.5c-0.3,0.8-0.5,1.4-1.1,2.2
		c0.5,0.3,1,0.6,1.7,0.7c1.9,0.1,3.8,0.1,5.7-0.1L61,32.3c-0.6,0.2-1.1,0.5-1.4,1.1L56,33.3c-1.1-0.1-2-0.5-2.7-1.2
		c-1.1,1-2.4,1.5-3.7,1.9l-0.1-0.2c1.2-0.6,2.4-1.3,3.2-2.4c-0.3-0.5-0.5-1-0.6-1.5l-0.1,0.1c-0.4,0.7-0.8,1.4-1.4,2l-0.2-0.1
		c0.9-1.6,1.5-3.4,1.5-5.3c0.5,0.1,1,0.3,1.5,0.5c0.1,0,0.1,0.2,0.1,0.2c-0.1,0.2-0.4,0.1-0.5,0.3l-0.3,0.9h1.1L54.1,27.9z
		 M52.5,28.8l-0.3,0.6c0.2,0.5,0.4,0.9,0.8,1.4c0.4-0.5,0.6-1.3,0.8-2H52.5z M57.6,28.6h-0.8v0.6c0,0.7-0.4,1.6-1,2
		c-0.4,0.2-0.7,0.4-1.1,0.5l-0.1-0.2c0.6-0.5,1.2-1.1,1.2-1.9c0.1-0.6,0-1.5-0.1-2c0.4,0.2,1,0.5,1.3,0.6c0.1,0,0.5,0,0.6,0l0.5-0.6
		c0.1-0.1,0.2-0.1,0.3,0l0.7,0.5c0.1,0.1,0.1,0.2,0.1,0.3c-0.1,0.1-0.4,0.3-0.5,0.4v1.4c0,0.1,0.1,0.2,0.2,0.2c0.1,0,0.3,0,0.4-0.1
		c0.4-0.2,0.4-1.3,0.5-1.6l0.3,0c0,0.6-0.1,1.3,0.6,1.6c-0.2,0.5-0.5,0.8-0.9,0.8c-0.5,0-1.1,0-1.4,0c-0.4,0-0.7-0.3-0.7-0.7V28.6z"
		/>
	<path class="st0" d="M68.2,24.9L68.2,24.9l-0.1,1.2v4.5l0,1.3c0,0.2-0.6,0.4-1.1,0.6c-0.1,0-0.2,0-0.2-0.1v-0.9h-2.4v0.8
		c0,0.2-0.1,0.2-0.2,0.2c-0.3,0.1-0.5,0.3-0.8,0.4c-0.1,0-0.1,0-0.2-0.1l0-2.6v-5.1c0-0.5,0-1-0.1-1.5c0.5,0.2,0.9,0.4,1.4,0.7h0.1
		c0.3-1,0.5-2.1,0.5-3.1c0.6,0.2,1.2,0.4,1.7,0.7c0,0.1,0.1,0.1,0,0.2c-0.2,0.1-0.4,0.2-0.5,0.3c-0.4,0.6-0.7,1.1-1.2,1.9l1.5,0
		l0.5-0.7c0.1-0.1,0.2-0.1,0.2,0c0.4,0.3,0.7,0.5,1.1,0.8C68.7,24.6,68.4,24.7,68.2,24.9z M66.9,28h-2.4v3.1h2.4V28z M66.9,24.7
		h-2.4v2.8l2.4,0V24.7z M74.2,25.2l-0.1,2.2L74,30c0,1.1-0.1,2.3-0.5,3c-0.4,0.5-1.1,0.7-1.6,1h-0.1c0-0.8-0.8-1.3-1.5-1.5l-0.6-0.2
		l0-0.3c0.8,0.1,1.6,0.2,2.4,0.3c0.2,0,0.3-0.1,0.4-0.3l0.1-0.3l0.2-2.7l0.1-3.1v-1.1h-2.5c-0.6,1-1.2,2-2,2.9l-0.2-0.1l0.5-1l0.8-2
		c0.4-1.1,0.7-2.3,0.9-3.6c0.6,0.2,1.2,0.5,1.7,0.8c0.1,0.1,0.1,0.2,0,0.3c-0.2,0.1-0.4,0.1-0.5,0.3c-0.3,0.6-0.6,1.4-0.9,2h2.1
		l0.5-0.7c0.1,0,0.1,0,0.2,0c0.4,0.3,0.8,0.6,1.2,0.9v0.1C74.5,24.8,74.2,24.9,74.2,25.2z M71.1,29.8c-0.1,0.1-0.2,0-0.3,0
		c-0.2-0.1-0.2-0.3-0.2-0.5c-0.2-0.9-0.5-1.7-1-2.5l0.1-0.2c0.7,0.3,1.5,0.7,2,1.4C72,28.7,71.5,29.3,71.1,29.8z"/>
	<path class="st0" d="M79.5,21c1,0.4,2.1,0.6,2.2,1.5c0,0.3-0.2,0.6-0.4,0.8l2.3,0c0.5-0.8,0.9-1.6,1.1-2.5l0.1,0
		c0.4,0.3,0.9,0.4,1.3,0.7c0.1,0.1,0.1,0.2-0.1,0.2L85.6,22c-0.5,0.5-1,1-1.5,1.4l2.5,0l0.7-0.9c0.1-0.1,0.2-0.2,0.4,0l1.2,1
		c0.1,0.1,0.1,0.2,0,0.3h-0.1h-5.6v1.4h0.1h2.4l0.6-0.9c0-0.1,0.2-0.1,0.3,0c0.5,0.3,0.9,0.8,1.3,1.1c0,0.1,0,0.2-0.1,0.2h-4.6V27
		h3.9l0.6-0.8c0-0.1,0.2,0,0.2,0c0.5,0.3,0.9,0.6,1.4,1c0,0,0.1,0.1,0,0.2c-0.1,0.1-0.2,0.1-0.4,0.1h-6.7h-0.1l1.4,0.4
		c0.1,0,0.1,0.1,0.1,0.2c-0.1,0.2-0.4,0.1-0.4,0.3L83,29.1h3.7l0.6-0.8c0.1-0.1,0.2-0.1,0.3,0c0.5,0.4,0.7,0.6,1.2,0.9
		c0,0,0,0.1,0,0.2l-0.1,0.1h-5.2c0.7,1.4,2.3,2.2,3.7,2.7c0.7,0.3,1.4,0.4,2.2,0.5l0,0.2c-1.1,0.2-1.5,0.4-2,1
		c-1.8-0.8-3.9-2.3-4.2-4.4h-0.3c-0.5,1.3-1.2,2.6-2.5,3.3c-1.1,0.6-2.4,0.9-3.8,1l-0.1-0.3c2.1-0.5,4-1.4,4.8-3.3
		c0.1-0.3,0.2-0.5,0.3-0.7h-3.6c-0.3,0-0.5,0.1-0.9,0.1l-0.4-0.5h5c0.2-0.6,0.3-1.1,0.3-1.7l-4.2,0c-0.3,0-0.5,0.1-0.9,0.1L76.3,27
		H82v-1.4h-2.9c-0.3,0-0.5,0.1-1,0.2l-0.4-0.6H82v-1.4h-3.9c-0.3,0-0.6,0.1-0.9,0.1l-0.4-0.5l0.6,0h3.2c-0.3-0.8-0.7-1.5-1.3-2.1
		L79.5,21z"/>
	<path class="st0" d="M103,26.4L103,26.4l-4.4,0v1h1.6l0.4-0.5c0-0.1,0.2-0.1,0.2,0l1,0.6c0.1,0.1,0.1,0.2,0,0.3
		c-0.1,0.1-0.4,0.1-0.4,0.3v1.1c0,0.1-0.1,0.2-0.1,0.2c-0.1,0.1-0.5,0.3-0.7,0.3c-0.1,0-0.2,0-0.2-0.1v-0.4l-2.7,0
		c0.3,0.1,0.5,0.2,0.8,0.3c0.2,0.1,0.5,0.1,0.5,0.4c-0.1,0.1-0.3,0.2-0.3,0.3v0.9c0.6-0.2,0.8-0.3,1.2-0.5c0.4-0.3,0.9-0.6,1.3-0.9
		c0.3,0.2,0.6,0.6,0.9,0.8c0.1,0.1,0,0.2-0.1,0.2c-0.8-0.1-1.5,0.3-2.3,0.5c-0.4,0.1-0.6,0.2-1,0.2v0.8c0,0.1,0.1,0.1,0.2,0.1
		c0.3,0.1,1.7,0.1,2.5,0c0.6-0.1,0.6-1,0.8-1.6l0.2,0c0.1,1.1,0.1,1.3,0.7,1.7c-0.3,0.5-0.8,0.9-1.4,0.9c-1.2,0-3,0.1-3.6-0.2
		c-0.3-0.1-0.5-0.5-0.5-0.8l0-2.4l-0.1-0.8v-0.1h-3.6l1.1,0.4c0.1,0,0.1,0.1,0.1,0.2c0,0-0.1,0.1-0.2,0.1c-0.1,0-0.2,0.1-0.2,0.1
		v0.4h0.9l0.5-0.7c0-0.1,0.2-0.1,0.2,0c0.4,0.3,0.7,0.6,1,0.9c0,0,0,0.1,0,0.2L97,31l-2.5,0l0,1.3c0.8-0.2,1.7-0.3,2.5-0.5l0.1,0.2
		c-1.3,0.6-2.2,0.9-3.3,1.7c0,0.2-0.2,0.3-0.4,0.2c-0.2-0.3-0.4-0.7-0.6-1c-0.1-0.2,0.5-0.3,0.5-0.6l0-0.1v-2l0-0.7h-0.6
		c-0.2,1.5-0.7,2.9-1.8,4l-0.5,0.5c-0.1,0-0.2-0.1-0.2-0.2c1.1-1.6,1.6-3.6,1.5-5.7c0-1,0-1.6-0.1-2.5l0.1,0v-1.8
		c0-0.4-0.1-0.8-0.1-1.2c0.4,0.2,0.8,0.4,1.3,0.6h1.8l0.4-0.5c0.1-0.1,0.2-0.1,0.3,0c0.2,0.2,0.5,0.3,0.8,0.6c0.1,0.1,0.1,0.2,0,0.2
		c-0.2,0.2-0.3,0.2-0.4,0.3v0.7l0.2-0.1c0.4,0.2,0.9,0.4,1.1,0.9c0.1,0.3-0.1,0.5-0.3,0.7l4.2,0l0.6-0.8c0,0,0.2-0.1,0.3,0
		c0.4,0.3,0.7,0.6,1,1C103.1,26.3,103.1,26.4,103,26.4z M96.4,22.3h-4.5c-0.3,0-0.6,0.1-1,0.1l-0.3-0.5h4l0.6-0.8
		c0.1-0.1,0.2-0.1,0.2,0l1,0.9C96.5,22.1,96.5,22.2,96.4,22.3L96.4,22.3z M96.1,24.8L96,24.7c0,0.4,0.1,0.5-0.2,0.6
		c-0.2,0.1-0.6,0.3-0.7,0.3c-0.1,0-0.2,0-0.2-0.1v-2h-2v1.8c0,0.1-0.2,0.2-0.6,0.4l0.7,0.3l3.3,0C96.4,25.5,96.3,25.2,96.1,24.8z
		 M94.7,27.8h-1.8l-0.1,1.1h1.8V27.8z M94.7,26.4h-1.8v1h1.8V26.4z M94,25.5c-0.1,0-0.3,0-0.3-0.1l0-0.1c0-0.5,0-1-0.3-1.4l0.2-0.1
		c0.4,0.3,0.9,0.6,0.9,1.1C94.5,25.1,94.2,25.4,94,25.5z M97.4,26.4h-1.6v1h1.6V26.4z M97.4,27.8h-1.6v1.1h1.6V27.8z M102.7,22.4
		h-4.8c-0.3,0-0.6,0-0.9,0.1L96.6,22l4.2,0l0.6-0.8c0,0,0.2-0.1,0.2,0c0.4,0.3,0.8,0.6,1.2,0.9C102.8,22.2,102.8,22.3,102.7,22.4
		L102.7,22.4z M101.5,23.9c0,0.4,0,0.7,0,1.1c0,0.2-0.6,0.5-0.9,0.5c-0.1,0-0.2,0-0.3-0.1v-1.9h-2l0,1.6c0,0.2-0.6,0.4-0.9,0.5
		c-0.1,0-0.2,0-0.2-0.1l0-0.1l0-0.8l0-0.9c0-0.2,0-0.5,0-1.1c0.4,0.1,0.8,0.4,1.2,0.5h1.9l0.4-0.4c0.1-0.1,0.2-0.1,0.3,0l0.8,0.6
		C102.1,23.6,101.5,23.7,101.5,23.9z M100.2,27.8h-1.6v1.1h1.6V27.8z M99.4,25.6c-0.1,0-0.2-0.1-0.2-0.2c-0.1-0.5-0.1-1.1-0.4-1.5
		l0.2-0.1c0.4,0.3,1,0.7,1,1.2C99.9,25.2,99.7,25.5,99.4,25.6z"/>
	<path class="st0" d="M109.8,27h0.6c0.1,0.1,0.1,0.2,0.2,0.3c0.1,0.1,0.2,0.1,0.4,0.1c0.6,0,1-0.7,1-1.8c0-1.7-0.8-2.1-1.4-2.1
		c-0.7,0-0.9,0.6-1,0.8c-0.1,0.2-0.2,0.6-0.6,0.6c-0.4,0-0.6-0.3-0.6-0.6c0-0.9,1.3-1.4,2.5-1.4c1.9,0,2.8,1.5,2.8,2.8
		c0,1.3-0.9,2.5-2.2,2.5c-0.5,0-0.9-0.2-1.1-0.3v1.4h-0.6V27z M110.1,30.5c0.6,0,1.1,0.5,1.1,1.1s-0.5,1.1-1.1,1.1
		c-0.6,0-1.1-0.5-1.1-1.1C109.1,31,109.6,30.5,110.1,30.5z"/>
</g>
</svg>
