<?xml version="1.0" encoding="utf-8"?>
<!-- Generator: Adobe Illustrator 21.0.2, SVG Export Plug-In . SVG Version: 6.00 Build 0)  -->
<svg version="1.1" id="Layer_2" xmlns="http://www.w3.org/2000/svg" xmlns:xlink="http://www.w3.org/1999/xlink" x="0px" y="0px"
	 viewBox="0 0 138 40" style="enable-background:new 0 0 138 40;" xml:space="preserve">
<style type="text/css">
	.st0{fill:#FFF9F4;}
</style>
<g>
	<path class="st0" d="M32.3,26.8H19.1c-1,0-1.6,0.1-2.5,0.2l-0.4-0.7h8.5c0.7-2.1,1.4-4.6,1.8-6.9c0.2-0.7,0.3-1.4,0.4-2.2
		c0.6,0.3,1.1,0.5,1.7,0.8c0.2,0.1,0.4,0.3,0.6,0.4c0.1,0.1,0,0.2-0.1,0.3c-0.3,0.2-0.6,0.1-0.7,0.4l-0.6,1.5l-1.1,2.7
		c-0.4,1-0.9,2-1.3,3h3.8l1.1-1.4c0.1,0,0.3-0.1,0.4,0c0.6,0.5,1.2,1,1.8,1.7C32.3,26.5,32.4,26.6,32.3,26.8L32.3,26.8z M31.9,17
		H19.3c-0.6,0-1.2,0.1-1.8,0.2l-0.4-0.7h11.6c0.3-0.4,0.7-0.9,1.1-1.4c0.1-0.1,0.2-0.1,0.3,0c0.7,0.6,1.2,1.1,1.8,1.8
		C32,16.8,32.1,17,31.9,17z M22.6,25c-0.2,0.1-0.4,0.3-0.6,0.2c-0.3-0.1-0.4-0.4-0.4-0.6c0-2.1-0.3-4.2-1-6.2
		c-0.1-0.4-0.3-0.7-0.4-1c0.1-0.1,0.3-0.1,0.3-0.2c1.1,1.7,2.3,3.2,2.8,5.2C23.6,23.5,23.2,24.5,22.6,25z M25.2,15.9
		C25,16,24.8,16,24.6,16c-0.5-0.3-0.4-1-0.7-1.5c-0.4-0.8-0.8-1.7-1.5-2.4l0.2-0.3c1,0.3,1.9,0.8,2.7,1.4c0.4,0.4,0.5,0.9,0.5,1.4
		C25.9,15.2,25.5,15.7,25.2,15.9z"/>
	<path class="st0" d="M39.7,22.9c-0.4-0.6-0.7-1.1-1.2-1.6l0.2-0.3c1.1,0.5,2.3,1.2,3.1,2.3c0.4,0.5,0.2,1.4-0.2,1.8
		c-0.2,0.3-0.4,0.5-0.7,0.5c-0.5-0.1-0.4-0.7-0.5-1c-0.1-0.4-0.2-0.7-0.4-1.1h-0.1l-0.7,0.6l-2.1,1.7l-0.9,0.8c-0.1,0.1-0.2,0-0.3,0
		c-0.3-0.5-0.7-1.1-1-1.6c-0.1-0.3,0.6-0.4,0.6-0.7v-0.4v-9.1l-0.1-2.5c0.6,0.3,1.1,0.5,1.7,0.8h2.6l0.8-0.8c0-0.1,0.2-0.1,0.3,0
		c0.4,0.3,0.8,0.6,1.1,1c0.2,0.2,0,0.3-0.4,0.7c-0.1,0.1-0.2,0.2-0.2,0.3v4v1.5c0,0.3-0.6,0.6-1.1,0.8c-0.1,0.1-0.3,0.1-0.3,0
		l-0.1-0.1v-1.1H37v4.5l2.6-1.1L39.7,22.9L39.7,22.9z M39.9,16.6h-2.9v2.5h2.9V16.6z M39.9,13.7h-2.9v2.3h2.9V13.7z M48.7,21.4
		c0,1.1,0.1,1.5-0.4,2c-0.4,0.4-1,0.8-1.5,0.9c-0.1-0.5-0.2-1-0.7-1.3c-0.3-0.3-0.8-0.3-1.2-0.4v-0.3c0.3,0,0.4,0.1,0.7,0.1
		c0.4,0.1,1,0.1,1.4,0.1c0.2-0.1,0.3-0.4,0.3-0.9V19v-4v-1.1h-2.6V15v10.7c0,0.6,0,1.2,0.1,1.8c0,0.1-0.1,0.2-0.2,0.3
		c-0.4,0.2-0.8,0.4-1.3,0.4c-0.3-0.2-0.1-0.4-0.1-0.7l0.1-3.1v-8.8l-0.1-3h0.2c0.5,0.2,1.1,0.4,1.5,0.7h2.4l0.7-0.7
		c0.1-0.1,0.3-0.1,0.4,0c0.4,0.4,0.7,0.5,1.1,1c0.1,0.1,0.1,0.2,0,0.3c-0.4,0.3-0.5,0.4-0.6,0.7L48.7,21.4L48.7,21.4z"/>
	<path class="st0" d="M65.4,26.1c0,0.3,0,0.8,0,1.2c0,0.2,0,0.3-0.2,0.4C65,27.9,64.1,28.1,64,28c-0.1-0.1-0.2-0.1-0.2-0.2v-1.1
		h-3.4v0.7c0,0.1-0.1,0.3-0.2,0.3c-0.4,0.3-0.8,0.4-1.1,0.4c-0.1,0-0.3-0.1-0.3-0.2c0-0.5,0.1-1.1,0.1-1.5v-2.7h-0.1
		c-0.7,1.4-1.8,2.6-3.1,3.6c-0.1,0-0.2-0.1-0.3-0.2c1.1-1.1,1.8-2.5,2.4-3.9c0.7-1.8,0.5-3.8,0.4-5.7c-0.6,0.4-1.1,0.9-1.8,1.2
		l-0.3-0.3c0.7-0.7,1.5-1.5,2.1-2.3h-2.6v3.2c0.8-0.3,1.6-0.6,2.3-1l0.2,0.3c-0.8,0.5-1.6,1.1-2.4,1.7v5.7c0,0.9-1.1,1.3-1.8,1.6
		c-0.2-0.5-0.3-1.2-1-1.6c-0.3-0.2-0.6-0.3-0.9-0.3l0.1-0.4c0.7,0.2,1.3,0.3,2,0.4c0.1,0,0.2-0.1,0.3-0.2v-4.4c-0.5,0.4-1,0.5-1.5,1
		c0,0.3-0.4,0.4-0.5,0.2l-0.8-1.1v-0.1c1.1-0.4,1.8-0.6,2.8-1v-3.8h-1.2c-0.4,0-0.8,0.1-1.1,0.2l-0.3-0.7h2.6v-2.4
		c0-0.4-0.1-1.1-0.1-1.6c0.4,0.1,0.5,0.2,0.8,0.3c0.4,0.2,0.8,0.3,1.2,0.4c0.1,0.1,0.1,0.2,0.1,0.2c-0.2,0.2-0.6,0.5-0.6,0.6v2.4H56
		l0.7-1c0.1-0.1,0.3-0.1,0.4,0c0.5,0.5,0.8,0.8,1.2,1.2l0.1,0.1c1.1-1.4,2-2.9,2.7-4.5c0.5,0.3,1.1,0.6,1.7,1c0.1,0.1,0.1,0.1,0,0.2
		c-0.2,0.1-0.4,0.1-0.5,0.2v0.1c1.4,1.9,3.5,3.2,5.6,3.8V17c-0.5,0.1-1.4,0.2-1.8,1h-0.1c-0.3-0.1-0.4-0.3-0.7-0.4
		c-1.5-1-2.5-2.6-3.4-4.2c-1.1,1.3-2.1,2.6-3.3,3.7c0.4,0.3,0.9,0.4,1.3,0.6h3.7l0.4-0.7c0.1-0.1,0.3-0.1,0.4,0
		c0.4,0.4,0.7,0.5,1.1,0.9c0,0.1,0.1,0.2,0,0.3c-0.2,0.2-0.5,0.3-0.5,0.4v1.8c0,0.4,0,1.1,0,1.5c0,0.1,0,0.2-0.2,0.2l-1.1,0.4
		c-0.1,0-0.2-0.1-0.2-0.2v-0.6h-4.2l0.2,1.1l1.3,0.6h3.1l0.6-0.6c0,0,0.3-0.1,0.3,0l1.1,0.7c0.1,0.1,0.1,0.2,0,0.3
		c-0.2,0.2-0.5,0.4-0.5,0.5L65.4,26.1L65.4,26.1z M63.7,20.2h-3.9l-0.2,1.3v0.1h4L63.7,20.2L63.7,20.2z M59.8,18.6v1.2h3.9v-1.2
		H59.8z M63.9,23.9h-3.5v2.4h3.5V23.9z M60.8,15.4c0.7,0.2,1.5,0.3,1.9,1.1c0.2,0.4,0,0.8-0.3,1.1c-0.1,0.1-0.4,0.3-0.5,0.2
		c-0.3-0.2-0.3-0.5-0.4-1c-0.2-0.4-0.4-0.8-0.8-1.1L60.8,15.4z"/>
	<path class="st0" d="M85.4,24.3h-2V27c0,0.6-1,1-1.7,1.2c0-0.5-0.2-1-0.7-1.2c-0.3-0.1-0.6-0.3-0.9-0.4v-0.3
		c0.5,0.1,1.1,0.2,1.6,0.2c0.2,0,0.3-0.1,0.3-0.3v-2h-0.2h-4.2v1.7v1.7c0,0.1,0,0.2-0.2,0.3c-0.3,0.2-0.7,0.3-1,0.4
		c-0.1,0-0.2,0-0.2-0.2l0.1-1.5v-2.4h-0.5c-0.3,0-0.4,0-0.8,0.1l-0.3-0.6h1.7v-3.6l-0.1-1c0.4,0.2,0.9,0.4,1.3,0.6h1.5v-1.3H76
		c-0.3,0-0.5,0.1-0.9,0.2l-0.3-0.4v4.9c0,0.1,0,0.3-0.1,0.4c-0.3,0.1-0.6,0.3-1.1,0.3c-0.2,0-0.2,0-0.2-0.2V23H72v0.4
		c0,0.1-0.1,0.2-0.1,0.2l-0.2,0.1c0.4,0.3,0.8,0.5,1.1,0.8c0.1,0.1,0.1,0.2,0,0.3c-0.2,0.1-0.3,0.1-0.5,0.1c-0.8,1.1-1.8,2-2.7,2.9
		l-0.3-0.2c0.9-1.1,1.6-2.4,2.1-3.7c-0.4,0.2-0.7,0.3-0.8,0.3l-0.1-0.1l0.1-2v-8.1l-0.1-1c0.4,0.2,1,0.5,1.4,0.7h1.4l0.4-0.6
		c0.1-0.1,0.3-0.1,0.3,0l1,0.8c0.1,0.1,0.2,0.2,0.1,0.4c-0.1,0.1-0.1,0.1-0.2,0.2h2.5c0-0.9,0-1.7-0.1-2.4c0.6,0.2,1.2,0.3,1.8,0.5
		c0.1,0.1,0.1,0.2,0.1,0.3c-0.2,0.1-0.4,0.2-0.4,0.4v1.1h1.9v-1.8l-0.1-0.6c0.6,0.2,1.2,0.3,1.8,0.5c0,0.1,0.1,0.1,0.1,0.2
		c0,0.3-0.4,0.3-0.5,0.5v1h1l0.5-0.8c0.1-0.1,0.2-0.1,0.3,0l1.3,1.1c0.1,0,0.1,0.2,0,0.3l-3.1-0.1V16h0.5l0.5-0.8
		c0.1,0,0.2-0.1,0.3,0l1.2,1.1c0.1,0.1,0.1,0.2,0,0.3h-2.5V18h1.1l0.6-0.9c0-0.1,0.2-0.1,0.3,0c0.5,0.4,0.9,0.8,1.3,1.1
		c0.1,0.1,0,0.2,0,0.3h-4.9v1.3H82l0.4-0.6c0.1-0.1,0.2-0.1,0.3,0c0.3,0.3,0.6,0.4,1.1,0.8c0.2,0.2-0.4,0.4-0.4,0.6v3h0.2l0.6-0.7
		c0.1-0.1,0.2-0.1,0.3,0l1,1.1C85.5,24.1,85.4,24.3,85.4,24.3z M73.5,14.1H72v2.4h1.6V14.1z M73.5,16.9H72v2.5h1.6V16.9z M73.5,20
		H72v2.5h1.6V20z M75,27.1c-0.1,0.1-0.3,0.1-0.3,0l-0.2-0.2c-0.6-1.7-0.6-1.6-1.6-2.6l0.2-0.2c0.5,0.2,1,0.4,1.5,0.8
		c0.4,0.3,0.9,0.5,1,1.1C75.6,26.4,75.4,26.7,75,27.1z M77.5,16.6h-1c-0.3,0-0.6,0.1-0.9,0.1c-0.1-0.2-0.3-0.4-0.4-0.6h2.1v-1.3
		h-1.1c-0.3,0-0.6,0.1-1,0.2l-0.4-0.6c-0.1,0-0.1,0.1-0.2,0.2V18v0.1h2.6v-1.5H77.5z M79.1,20.3h-1.4v1.3h1.5L79.1,20.3L79.1,20.3z
		 M79.1,22.2h-1.4v1.6h1.5L79.1,22.2L79.1,22.2z M80.7,14.7h-1.9v1.4h1.9V14.7z M80.7,16.6h-1.9V18h1.9V16.6z M82,20.3h-1.5v1.3H82
		V20.3z M82,22.2h-1.5v1.6H82V22.2z"/>
	<path class="st0" d="M94,16.6h-3.9c-1.5,0-1.8-0.1-2.2,1.4l-0.2,0.6h-0.4l1-4.8h0.4V14c0,0.2-0.1,0.5-0.1,0.7
		c0,0.6,0.4,0.4,1.2,0.4h5.3v0.3c-1.5,3-2.6,6-3.4,9.3c-0.2,0.7-0.4,2.2-1.3,2.2c-0.4,0-0.9-0.4-0.9-0.9c0-1.1,1.8-4.5,2.4-5.5
		L94,16.6z"/>
	<path class="st0" d="M99.3,27c-0.8,0-2.3-0.4-2.3-1.4c0-0.4,0.3-0.8,0.7-0.8c1.1,0,0.7,1.7,2,1.7c2.5,0,2.3-3.8,2.4-5.4l0,0
		c-0.7,1-1.4,1.5-2.6,1.5c-2.1,0-3.5-1.7-3.5-3.7c0-2.1,1.7-4,3.9-4c2.9,0,4,2.9,4,5.3C103.9,23,102.8,27,99.3,27z M102.2,19.4
		c0-1.5-0.2-4.1-2.2-4.1c-1.9,0-2.1,2-2.1,3.5c0,1.4,0.1,3.3,2,3.3c1.1,0,1.8-0.8,2.4-1.7L102.2,19.4L102.2,19.4z"/>
	<path class="st0" d="M108.5,20.8c-0.8,0.4-1,0.4-2,1.1c-0.1,0.2-0.3,0.4-0.5,0.1c-0.3-0.6-0.4-1-0.5-1.4c1-0.3,2-0.5,3.1-0.9v-3.5
		h-1.5c-0.4,0-0.6,0.1-0.9,0.2l-0.4-0.7h2.8v-2.2c0-0.7,0-1.4,0-2c0.7,0.2,1.3,0.4,2.1,0.7c0.1,0,0.1,0.2,0,0.3
		c-0.3,0.2-0.5,0.4-0.5,0.5v2.7h0.7l0.7-0.9c0.1-0.1,0.3-0.1,0.3,0c0.4,0.3,0.6,0.6,1.1,1.1c0.1,0.1-0.1,0.3-0.2,0.3h-2.6v3
		c0.8-0.3,1.8-0.7,2.4-0.9l0.2,0.3c-0.7,0.4-1.8,1.1-2.5,1.6v5.5c0,0.5,0,0.9-0.5,1.3c-0.3,0.3-0.9,0.6-1.4,0.7
		c-0.2-0.6-0.5-1.2-1.1-1.5l-0.8-0.3l0.1-0.4c0.6,0.1,1.2,0.2,1.8,0.2c0.2,0,0.3-0.2,0.4-0.3V20.8z M118.9,25c0,1.1,0,1.6,0,2.2
		c0,0.2-0.1,0.3-0.3,0.4c-0.4,0.2-1,0.4-1.1,0.5c-0.1,0-0.3,0-0.3-0.2c0-1.1,0.1-1.8,0.1-2.8v-7H115c-0.2,3.4-0.6,6.6-3.5,8.7
		c-0.5,0.4-1,0.7-1.5,1c-0.1-0.1-0.2-0.2-0.3-0.4c1.8-1.4,2.7-3,3.3-5.5l0.1-0.3c0.2-1.4,0.3-2.6,0.3-3.9v-2.7l-0.2-1.9
		c0.7,0.3,1.1,0.5,1.7,0.9c1.6-0.3,3.1-1,4.3-1.9c0.3-0.2,0.3,0.1,0.4,0.2c0.4,0.4,0.7,1,1.1,1.5c0,0.1-0.1,0.2-0.1,0.2
		c-1.3-0.3-2.4,0.3-3.6,0.4l-2.1,0.3v3v0.3h4.2l1-1.1c0.1-0.1,0.3-0.1,0.3,0s0.9,1,1.1,1.3c0.1,0.1,0.1,0.3,0,0.3h-2.9L118.9,25
		C118.8,25,118.9,25,118.9,25z"/>
</g>
</svg>
