<?xml version="1.0" encoding="utf-8"?>
<!-- Generator: Adobe Illustrator 21.0.2, SVG Export Plug-In . SVG Version: 6.00 Build 0)  -->
<svg version="1.1" id="Layer_1" xmlns="http://www.w3.org/2000/svg" xmlns:xlink="http://www.w3.org/1999/xlink" x="0px" y="0px"
	 viewBox="0 0 114.7 41" style="enable-background:new 0 0 114.7 41;" xml:space="preserve">
<style type="text/css">
	.st0{fill:#808285;}
	.st1{fill:#DA2128;}
	.st2{fill:#FFFFFF;}
</style>
<g>
	<path class="st0" d="M78.9,9.7l-9.2-3.5v16.8c3.1-0.2,6.2-0.5,9.2-0.9V9.7z"/>
	<path class="st0" d="M45,6.1l-9.2,3.5V22c3,0.4,6,0.7,9.2,0.9V6.1z"/>
	<path class="st1" d="M114.7,2c-8.3,2.6-21.5,6.4-31.4,7.2l18.9,7.2v7.1c3.9-1.1,7.6-2.5,11.4-3.9l0.8-0.3l-8.4-3.8L114.7,2z"/>
	<path class="st1" d="M31.4,9.2C21.5,8.4,8.3,4.6,0,2l8.7,13.4l-8.4,3.8L1,19.5c3.9,1.4,7.5,2.8,11.4,3.9v-7.1L31.4,9.2z"/>
	<path class="st1" d="M100.4,17.3l-18.8-7v11.3C88.8,20.6,95.2,19.2,100.4,17.3"/>
	<polygon class="st1" points="97.4,27.6 100.8,32.8 100.8,20.2 	"/>
	<path class="st1" d="M14.3,17.3l18.8-7v11.3C25.9,20.6,19.5,19.2,14.3,17.3"/>
	<path class="st1" d="M15.4,33.8l3.9-6l-3.7-8.2c10.7,3.5,25.8,5.3,41.8,5.3c16,0,31.1-1.8,41.8-5.2l-3.6,8.1l3.9,6.1
		c-11.1,3.8-26.4,6-42,6C41.7,39.9,26.5,37.7,15.4,33.8"/>
	<polygon class="st1" points="17.3,27.6 14,32.8 14,20.2 	"/>
	<path class="st2" d="M54.4,28.1c-0.5,0.4-0.8,0.8-1.1,1.2c-0.4-0.4-0.8-0.8-1.2-1.1c0.3-0.3,0.8-0.8,1.1-1.1
		C53.5,27.5,53.9,27.8,54.4,28.1"/>
	<path class="st2" d="M58.5,30.4c-0.5,0.3-1,0.7-1.4,1.1c-0.3-0.4-0.8-0.9-1.2-1.2c0.4-0.3,1-0.8,1.3-1.1C57.6,29.6,58,30,58.5,30.4
		 M58.5,35c-0.5,0.3-1,0.7-1.4,1.1c-0.3-0.4-0.8-0.8-1.2-1.2c0.4-0.3,1-0.8,1.3-1.1C57.6,34.3,58,34.6,58.5,35"/>
	<path class="st2" d="M22.5,33.1L22.5,33.1c0.8,0.1,0.8-1.2,0.8-4.6c0-3.3,0-4.7-0.8-5c0.2,0.1,0.4,0.2,0.6,0.2
		c0.2,0.1,0.4,0.1,0.6,0.2c0.6,0.2,1.3,0.3,2,0.4c0.7,0.1,1.3,0.2,1.8,0.4c2.4,0.6,4.9,1.9,4.9,5.5c0,3.1-2.4,5.1-6,4.2L22.5,33.1z
		 M25.2,32.3c0.6,0.8,1.2,1.2,2.3,1.4c1.5,0.4,2,0,2.4-0.4c0.3-0.3,0.8-1.3,0.8-2.9c0-2.9-1.6-4.8-3.9-5.4c-0.5-0.1-1-0.2-1.6,0.3
		V32.3z"/>
	<path class="st2" d="M33.7,35.5c0.6,0,0.6-1.1,0.6-3.5c0-2.3,0-3.4-0.7-3.7c0,0,1.6,0.6,2.5,0.4c0,0-0.1,0.8-0.1,1.4
		c1.4-1.7,2.8-1.8,2.8-1.8c-0.2,0.8-0.4,1.5-0.6,2.3c-0.2-0.1-0.5-0.3-0.9-0.4c-0.4,0-1,0.1-1.2,2c0,2.8,0,3.4,0.6,3.7
		C36.7,35.9,35.4,35.6,33.7,35.5"/>
	<path class="st2" d="M38.5,35.4c0.6-0.4,0.9-0.7,1.4-1.2c0.4,0.5,0.8,0.9,1.3,1.3c-0.4,0.3-1,0.9-1.3,1.2
		C39.4,36.2,39.1,35.9,38.5,35.4"/>
	<path class="st2" d="M50.3,35.2c-0.9,0.9-1.2,1.3-1.7,1.7c-0.5,0.5-0.9,0.5-1.6,0.5c-3.1-0.2-5.1-2.3-5.1-5.3
		c0-4.3,4.3-4.7,5.7-4.6c0.6,0,1.1,0.1,1.5,0.2c0.4,0.1,0.6,0.2,0.8,0.2c0.1,0,0.2,0,0.2,0c-0.2,0.4-0.5,1.4-0.5,2.2
		c0,0.1,0,0.2,0,0.3c-0.1,0-0.2,0-0.3,0c0-0.8-0.2-1.3-1-1.7c-0.6-0.3-1.3-0.4-1.8-0.4c-0.5,0-1.2,0-1.5,0.2
		c-0.8,0.4-1.1,2.1-1.1,2.8c0,3.4,1.8,4.4,3.8,4.6C48.5,35.9,49.6,35.7,50.3,35.2"/>
	<path class="st2" d="M51.7,37.4c0.6-0.1,0.6-0.7,0.6-3.5c0-2.3,0-3.4-0.7-3.5c0,0,1.3,0.3,2.5,0.3c-0.1,0-0.2,1.4-0.2,3.3
		c0,2.9,0,3.4,0.6,3.7C54.5,37.6,52.7,37.4,51.7,37.4"/>
	<path class="st2" d="M60.3,37.5L60.3,37.5C61,37.4,61,36,61,32.3c0-3.6,0-5-0.7-5.2c0,0,1.5,0.2,3.2,0c-0.8,0.1-0.8,1.6-0.8,5.1
		c0,1.5,0.1,4.1,0.1,4.1c0.2,0.4,0.5,0.4,0.7,0.4c1.2-0.1,2.8-0.6,3.1-1.5c0.1-0.2,0.2-0.5,0.3-0.7c-0.3,0.9-0.5,2.7-0.5,2.7
		C63.7,37.6,60.3,37.5,60.3,37.5"/>
	<path class="st2" d="M72.5,36.9c0,0,0.1-1,0.1-1l-2,1c-0.8,0.4-2.8,0.2-2.8-1.5c0-1.3,0.7-1.6,1.6-1.9c1.1-0.4,2.2-0.6,3.2-1
		c0-0.6,0-1.6-1.7-1.5c-1.1,0.1-1.8,0.6-2.1,0.8c-0.1,0-0.1-0.1-0.2,0.1c0.5-0.6,1.3-1.5,1.6-1.7c0.5-0.4,0.9-0.4,1.4-0.5
		c1.6-0.1,2.7,0.2,2.7,2.1c0,0.8-0.1,1.6-0.1,2.3c0,1.8,0,2.5,0.7,2.6C74.9,36.8,73.4,37,72.5,36.9 M71,35.9
		c0.8-0.1,1.4-0.6,1.5-0.9c0.1-0.3,0.1-0.7,0.1-0.7c-0.3-1-1.5-0.7-2.2-0.4c-0.5,0.2-0.8,0.5-0.8,1C69.6,35.6,70.4,35.9,71,35.9"/>
	<path class="st2" d="M78,26c0,0-0.2,1.9-0.2,4.4c0.6-0.4,1.4-1,2-1.2c1.2-0.5,3.5-0.2,3.5,2.5c0,1.4-0.6,2.5-1.5,3.3
		c-1,0.8-2.4,1.4-3.6,1.5c-0.4,0.1-1.3,0-1.9-0.1c-0.1,0.1-0.2,0.1-0.3,0.2c0.1-0.7,0.2-2.7,0.2-5.2c0-3.7,0-5.5-0.7-5.7L78,26z
		 M79.4,35.7c0.4,0,1.1-0.2,1.4-0.5c0.7-0.6,0.8-2,0.8-2.5c0-1.9-1-2.6-2.4-2.4c-0.4,0-0.7,0.2-0.9,0.4c-0.4,0.4-0.4,2.6-0.4,3.1
		c0,0.9,0,1.5,0.1,1.5C78.2,35.6,78.7,35.8,79.4,35.7"/>
	<path class="st2" d="M89.6,34.2c-0.7,0.5-1.2,0.7-1.8,0.8c-2.3,0.3-3.6-0.9-3.6-3c0-1.3,0.6-2.5,1-2.8c0.6-0.4,1.5-0.9,2.1-1.3
		c0.5-0.3,0.9-0.5,1.4-0.5c2.4-0.4,3.4,0.6,3.4,2.8c0,0.1-0.2,1.7-0.5,2.3C91.4,32.9,90.4,33.6,89.6,34.2 M86.1,31.3
		c0,2.1,1.2,2.7,2.8,2.5c0.8-0.1,1-0.3,1.1-1c0.1-0.4,0.2-1,0.2-1.6c0-1.4-0.4-3-2.4-2.7c-0.2,0-0.8,0.2-1.1,0.4
		C86.3,29.1,86.1,30.3,86.1,31.3"/>
	<path class="st0" d="M57.4,1l-9.8,4.8v17.3c3.2,0.2,6.5,0.3,9.8,0.3c3.3,0,6.6-0.1,9.8-0.3V5.8L57.4,1z"/>
	<path class="st2" d="M65.7,21.7c-2.7,0.1-5.5,0.2-8.3,0.2c-2.8,0-5.6-0.1-8.3-0.2V6.8l8.3-4.1l8.3,4.1V21.7z"/>
	<polygon class="st0" points="59,14.8 59,19.3 55.7,19.3 55.7,14.8 51.2,14.8 51.2,11.5 55.7,11.5 55.7,7 59,7 59,11.5 63.5,11.5 
		63.5,14.8 	"/>
</g>
</svg>
