<?xml version="1.0" encoding="utf-8"?>
<!-- Generator: Adobe Illustrator 21.0.2, SVG Export Plug-In . SVG Version: 6.00 Build 0)  -->
<svg version="1.1" id="Layer_1" xmlns="http://www.w3.org/2000/svg" xmlns:xlink="http://www.w3.org/1999/xlink" x="0px" y="0px"
	 viewBox="0 0 138 20" style="enable-background:new 0 0 138 20;" xml:space="preserve">
<style type="text/css">
	.st0{fill:#FFFFFF;}
</style>
<polygon class="st0" points="14.6,6.1 11.3,6.1 11.3,15.1 10.1,15.1 10.1,6.1 6.9,6.1 6.9,5 14.6,5 "/>
<path class="st0" d="M21,5c1.5,0,2.7,0.5,3.7,1.5c1,1,1.5,2.2,1.5,3.6c0,1.4-0.5,2.6-1.5,3.6c-1,1-2.3,1.5-3.7,1.5
	c-1.5,0-2.7-0.5-3.8-1.5c-1-1-1.5-2.2-1.5-3.6c0-1.4,0.5-2.6,1.5-3.6C18.3,5.5,19.5,5,21,5 M21,6.1c-1.1,0-2.1,0.4-2.9,1.2
	C17.3,8,16.9,8.9,16.9,10s0.4,2,1.2,2.8c0.8,0.8,1.8,1.2,2.9,1.2c1.1,0,2.1-0.4,2.9-1.2c0.8-0.8,1.2-1.7,1.2-2.8s-0.4-2-1.2-2.8
	C23.1,6.5,22.1,6.1,21,6.1"/>
<polygon class="st0" points="36.1,15.1 32.4,10.3 30.4,12.5 30.4,15.1 29.3,15.1 29.3,5 30.4,5 30.4,10.8 35.8,5 37.2,5 33.2,9.4 
	37.5,15.1 "/>
<polygon class="st0" points="44.2,11.6 44.2,15.1 43,15.1 43,11.7 39.1,5 40.3,5 43.6,10.3 46.8,5 48,5 "/>
<path class="st0" d="M54.2,5c1.5,0,2.7,0.5,3.7,1.5c1,1,1.5,2.2,1.5,3.6c0,1.4-0.5,2.6-1.5,3.6c-1,1-2.3,1.5-3.7,1.5
	c-1.5,0-2.7-0.5-3.8-1.5c-1-1-1.5-2.2-1.5-3.6c0-1.4,0.5-2.6,1.5-3.6C51.5,5.5,52.7,5,54.2,5 M54.2,6.1c-1.1,0-2.1,0.4-2.9,1.2
	C50.5,8,50.1,8.9,50.1,10s0.4,2,1.2,2.8c0.8,0.8,1.8,1.2,2.9,1.2c1.1,0,2.1-0.4,2.9-1.2c0.8-0.8,1.2-1.7,1.2-2.8s-0.4-2-1.2-2.8
	C56.3,6.5,55.3,6.1,54.2,6.1"/>
<path class="st0" d="M88.1,5v7.1c0,1-0.3,1.7-0.8,2.3c-0.5,0.5-1.2,0.8-2.1,0.8c-1.1,0-2-0.5-2.8-1.4l0.6-0.9
	c0.6,0.8,1.4,1.2,2.2,1.2c0.6,0,1-0.2,1.3-0.5c0.3-0.3,0.4-0.8,0.4-1.4V6.1h-3.6V5H88.1z"/>
<path class="st0" d="M97.8,12.5h-5.5l-1.1,2.5h-1.2L94.5,5h1.2l4.5,10.1h-1.3L97.8,12.5z M97.3,11.4L95,6.3l-2.2,5.1H97.3z"/>
<path class="st0" d="M102.6,5h3.8c1.2,0,2.2,0.3,2.9,0.9c0.7,0.6,1,1.4,1,2.5c0,1.1-0.3,2-1,2.6c-0.7,0.6-1.7,0.9-2.9,0.9h-2.6v3.2
	h-1.2V5z M103.7,6.1v4.7h2.6c0.9,0,1.6-0.2,2.1-0.6c0.5-0.4,0.7-1,0.7-1.8c0-0.8-0.2-1.3-0.7-1.7c-0.5-0.4-1.2-0.6-2.1-0.6H103.7z"
	/>
<path class="st0" d="M118.9,12.5h-5.5l-1.1,2.5H111L115.5,5h1.2l4.5,10.1H120L118.9,12.5z M118.4,11.4l-2.3-5.1l-2.2,5.1H118.4z"/>
<polygon class="st0" points="132,15.1 130.8,15.1 124.8,7 124.8,15.1 123.6,15.1 123.6,5 124.8,5 130.9,13.1 130.9,5 132,5 "/>
<path class="st0" d="M67.7,10.4c0,0,0.7-0.5,1.8-1.5C70.5,7.9,71,7.1,71,7.1s0.4,0.7,1.5,1.7c1,1,1.8,1.6,1.8,1.6s-0.8,0.5-1.8,1.5
	c-1,1-1.5,1.8-1.5,1.8s-0.4-0.7-1.5-1.8C68.3,10.8,67.7,10.4,67.7,10.4"/>
</svg>
